<?xml version="1.0" encoding="UTF-8"?> <!-- Generator: Adobe Illustrator 26.0.3, SVG Export Plug-In . SVG Version: 6.00 Build 0) --> <svg xmlns="http://www.w3.org/2000/svg" xmlns:xlink="http://www.w3.org/1999/xlink" version="1.1" id="Layer_1" x="0px" y="0px" viewBox="0 0 1152 648" style="enable-background:new 0 0 1152 648;" xml:space="preserve"> <style type="text/css"> .st0{fill:#0A83A0;} .st1{fill:#C89349;} .st2{fill:#1A6137;} .st3{fill:#993320;} .st4{fill:#FCFAF5;} .st5{fill:#C08272;} .st6{fill:#759D7F;} .st7{fill:#6CB1BD;} .st8{fill:#DCBA8A;} .st9{fill:#F8F2E6;} .st10{fill:#CC998F;} .st11{fill:#84C1CF;} .st12{fill:#E3C9A4;} .st13{fill:#8CB09B;} .st14{fill:#333333;} .st15{fill:#053947;} .st16{fill:#FFFFFF;} .st17{opacity:0.5;fill:#993320;enable-background:new ;} .st18{opacity:0.5;} .st19{fill:none;stroke:#0A83A0;stroke-width:2.49;stroke-miterlimit:10;} .st20{fill:none;stroke:#1A6137;stroke-width:2.3;stroke-linecap:round;stroke-miterlimit:10;} .st21{fill:none;stroke:#1A6137;stroke-width:2.3;stroke-linecap:round;stroke-linejoin:round;} .st22{opacity:0.5;fill:#1A6137;enable-background:new ;} </style> <g> <path class="st0" d="M722.2,255.4c4.9,12.2,8.7,24.9,11.2,37.8c2.1,11.1,3.4,22.3,3.7,33.6H801l-0.1-0.1L716.2,242 C718.4,246.4,720.4,250.9,722.2,255.4"></path> <path class="st1" d="M636,484.4c-22.7,9.2-46.9,14.2-71.3,14.9v63.9h0l84.7-84.7C645,480.5,640.6,482.5,636,484.4z"></path> <path class="st2" d="M407.1,398c-9.3-22.7-14.4-46.8-15.1-71.3l-63.9,0.2h0l0,0.1l85,84.5C411,407,409,402.5,407.1,398z"></path> <path class="st3" d="M493.3,174.8c22.7-9.2,46.9-14.2,71.3-14.9V96h-0.1l-84.7,84.8C484.3,178.6,488.7,176.6,493.3,174.8z"></path> <path class="st3" d="M564.7,292.1V119.8c-114.2,0-206.8,92.6-206.8,206.8h172.3C530.2,307.6,545.6,292.1,564.7,292.1"></path> <path class="st2" d="M530.2,326.5H357.9c0,114.2,92.6,206.8,206.8,206.8V360.9C545.6,360.9,530.2,345.5,530.2,326.5"></path> <path class="st0" d="M564.7,119.8v172.3c19,0,34.5,15.4,34.5,34.5v0h172.3C771.5,212.4,678.9,119.8,564.7,119.8"></path> <path class="st1" d="M564.7,361.1v172.3c114.2,0,206.8-92.6,206.8-206.8H599.1C599.1,345.6,583.7,361.1,564.7,361.1"></path> <path class="st4" d="M564.7,196L564.7,196v96.1c-19,0-34.4,15.4-34.5,34.4c0,19,15.5,34.4,34.5,34.4l0,0v96.2l0,0v-96.1 c19,0,34.5-15.4,34.5-34.5v0c0-19-15.4-34.5-34.5-34.5c0,0,0,0,0,0V196"></path> <path class="st5" d="M564.7,196c-72.1,0-130.5,58.4-130.6,130.5h96.1c0,0,0,0,0,0.1c0-19,15.5-34.4,34.5-34.4V196"></path> <path class="st6" d="M530.2,326.5h-96.1c0,0,0,0.1,0,0.1c0,72.1,58.5,130.6,130.6,130.6v-96.2l0,0 C545.6,360.9,530.2,345.5,530.2,326.5C530.2,326.5,530.2,326.5,530.2,326.5"></path> <path class="st7" d="M564.7,196L564.7,196v96.1c0,0,0,0,0,0c19,0,34.5,15.4,34.5,34.5v0l0,0h96.1C695.2,254.5,636.8,196,564.7,196"></path> <path class="st8" d="M695.2,326.6h-96.1l0,0c0,19-15.4,34.5-34.5,34.5v96.1l0,0C636.8,457.2,695.2,398.7,695.2,326.6 C695.2,326.6,695.2,326.6,695.2,326.6"></path> <circle class="st9" cx="564.7" cy="326.6" r="98.9"></circle> <path class="st10" d="M90.4,233.4c-3.2,0-5.9,2.5-6.1,5.7c0,0.7,0.5,1.2,1.2,1.2c0.7,0,1.2-0.5,1.2-1.2c0.2-1.8,1.6-3.1,3.3-3.3 c0.1,0,0.3,0,0.4,0c1.9,0,3.5,1.4,3.7,3.3c0,0.6,0.5,1.2,1.2,1.2l0.1,0c0.6,0,1.1-0.6,1-1.2c-0.2-3.1-2.6-5.5-5.7-5.7 C90.6,233.4,90.5,233.4,90.4,233.4"></path> <path class="st10" d="M101.2,269.1C101.2,269.1,101.2,269.1,101.2,269.1c-13.5,0-24.5-11-24.5-24.5c0-13.5,11-24.4,24.4-24.4 c0,0,0,0,0,0c13.5,0,24.4,10.9,24.4,24.4v0C125.6,258.2,114.7,269.1,101.2,269.1 M101.2,217.8c-14.8,0-26.8,12-26.8,26.8 c0,14.8,12,26.8,26.8,26.8c14.8,0,26.8-12,26.8-26.8C128,229.8,116,217.8,101.2,217.8"></path> <path class="st10" d="M113.7,248c-0.7,0-1.2,0.5-1.2,1.2c0,5.7-5.1,10.4-11.4,10.4s-11.3-4.7-11.3-10.4c-0.1-0.6-0.5-1-1.1-1.1 c0,0-0.1,0-0.1,0c-0.6,0-1.1,0.5-1.2,1.1c0,7,6.1,12.8,13.7,12.8s13.7-5.7,13.7-12.8C114.9,248.5,114.4,248,113.7,248"></path> <path class="st10" d="M112,233.5c-3.2,0-5.8,2.5-6.1,5.7v0c0,0.6,0.5,1.1,1.2,1.1c0,0,0,0,0,0c0.6,0,1.2-0.5,1.2-1.2 c0.2-1.7,1.6-3.1,3.3-3.3c0.1,0,0.3,0,0.4,0c1.9,0,3.5,1.4,3.7,3.3c0,0.6,0.5,1.2,1.2,1.2h0c0.6,0,1.2-0.5,1.1-1.2 c-0.2-3-2.6-5.4-5.6-5.6C112.3,233.5,112.1,233.5,112,233.5"></path> <path class="st11" d="M1074.8,238.8L1074.8,238.8h-8.7v2.5h8.6c0.4,0,0.7,0.2,1,0.5l4.6,8.2h2l0,0l0,0c0,0,0,0,0,0 c0.6,0,1.2,0.5,1.2,1.2l0,0l0,0l0,0.2l0,0.1v8.5c0,0.7-0.6,1.2-1.2,1.3h-1.7c0.3,0.8,0.5,1.6,0.5,2.5l0,0l0,0c0,0,0,0,0,0h1.2h0 c2.1,0,3.7-1.7,3.7-3.7v0v-8.4c0-0.1,0-0.3,0-0.4l0-0.1v0c-0.1-2-1.7-3.6-3.7-3.6l-0.1,0h-0.5l-3.9-7l0,0 C1077.1,239.4,1076,238.8,1074.8,238.8"></path> <path class="st11" d="M1066.1,230h-22.4v2.5h19.9v28.6h-16.7c0.3,0.8,0.5,1.6,0.5,2.5h18.7h-1.2v-2.5h1.2v-19.9v-2.5V230"></path> <path class="st11" d="M1035.5,261.1h-5.5v2.5h5C1034.9,262.7,1035.1,261.9,1035.5,261.1"></path> <path class="st11" d="M1081,263.6L1081,263.6L1081,263.6 M1074.8,257.4c-2.6,0-4.8,1.5-5.7,3.7h0.8v2.5h-1.3c0,0,0,0,0,0 c0,3.4,2.8,6.2,6.2,6.2c3.4,0,6.2-2.8,6.2-6.2c0,0,0,0,0,0h-1.2h-1.2c0,1-0.4,2-1.1,2.7c-0.7,0.7-1.6,1.1-2.7,1.1 c-1,0-2-0.4-2.7-1.1c-0.7-0.7-1.1-1.6-1.1-2.7c0-1,0.4-2,1.1-2.7c0.7-0.7,1.6-1.1,2.7-1.1c1,0,2,0.4,2.7,1.1 c0.7,0.7,1.1,1.6,1.1,2.7h1.2h1.2l0,0c0-0.9-0.2-1.7-0.5-2.5C1079.6,258.9,1077.4,257.4,1074.8,257.4"></path> <path class="st11" d="M1047.4,263.6L1047.4,263.6L1047.4,263.6 M1041.2,257.4c-2.6,0-4.8,1.5-5.7,3.7c-0.3,0.8-0.5,1.6-0.5,2.5 c0,0,0,0,0,0c0,3.4,2.8,6.2,6.2,6.2c3.4,0,6.2-2.8,6.2-6.2h-1.2h-1.2c0,1-0.4,2-1.1,2.7c-0.7,0.7-1.6,1.1-2.7,1.1 c-1,0-2-0.4-2.7-1.1c-0.7-0.7-1.1-1.6-1.1-2.7c0-1,0.4-2,1.1-2.7c0.7-0.7,1.6-1.1,2.7-1.1c1,0,2,0.4,2.7,1.1 c0.7,0.7,1.1,1.6,1.1,2.7h1.2h1.2l0,0c0,0,0,0,0,0c0-0.9-0.2-1.7-0.5-2.5C1045.9,258.9,1043.7,257.4,1041.2,257.4"></path> <polyline class="st11" points="1069.8,261.1 1069.1,261.1 1066.1,261.1 1064.8,261.1 1064.8,263.6 1066.1,263.6 1068.5,263.6 1069.8,263.6 1069.8,261.1 "></polyline> <polyline class="st11" points="1074.6,244.2 1072.5,245.6 1074.5,248.7 1067.3,248.7 1067.3,251.2 1077.3,251.2 1077.3,248.3 1074.6,244.2 "></polyline> <polyline class="st11" points="1047.4,244.9 1026.3,244.9 1026.3,247.4 1047.4,247.4 1047.4,244.9 "></polyline> <polyline class="st11" points="1054.9,237.5 1036.2,237.5 1036.2,240 1054.9,240 1054.9,237.5 "></polyline> <polyline class="st11" points="1033.7,237.5 1031.2,237.5 1031.2,240 1033.7,240 1033.7,237.5 "></polyline> <polyline class="st11" points="1041.2,230 1038.7,230 1038.7,232.5 1041.2,232.5 1041.2,230 "></polyline> <path class="st12" d="M1050.4,500.2l-19.8-8.3c-0.2-0.1-0.3-0.3-0.3-0.5V468c0-0.2,0.1-0.3,0.2-0.4c0.1-0.1,0.2-0.1,0.3-0.1v-0.1 l0.2,0l19.8,8.3c0.2,0.1,0.3,0.3,0.3,0.5v23.4c0,0.2-0.1,0.3-0.2,0.4c-0.1,0.1-0.2,0.1-0.3,0.1H1050.4 M1051.9,474.1l-7.8-3.2 c-0.2-0.1-0.3-0.3-0.3-0.5c0-0.2,0.1-0.4,0.3-0.5l18.9-7.9h0.2v0l0.2,0l7.8,3.2c0.1,0.1,0.2,0.1,0.3,0.3c0.1,0.3,0,0.5-0.3,0.7 l-18.9,7.9h-0.2H1051.9 M1040.3,469.2l-7.3-3c-0.1-0.1-0.2-0.1-0.3-0.3c-0.1-0.3,0-0.5,0.3-0.7l18.9-7.9h0.2v-0.1l0.2,0l7.2,3 c0.2,0.1,0.3,0.3,0.3,0.5c0,0.2-0.1,0.4-0.3,0.5l-18.4,7.7l-0.2,0.2c-0.1,0.1-0.2,0.1-0.3,0.1c0,0,0,0,0,0H1040.3 M1051.9,455.3 C1051.9,455.3,1051.9,455.3,1051.9,455.3C1051.9,455.3,1051.9,455.3,1051.9,455.3c-0.2,0-0.3,0-0.4,0.1l-22.8,9.5l-0.1,0.1 l-0.1,0.1l-0.1,0.1c-0.1,0.1-0.1,0.2-0.2,0.3v0.1c0,0.1-0.1,0.2-0.1,0.3v26.7c0,0.4,0.2,0.8,0.6,0.9l22.9,9.5 c0.1,0.1,0.2,0.1,0.4,0.1c0.1-0.1,0.2-0.2,0.3-0.4h0.1l0.1,0l0.1-0.1c0.1-0.1,0.1-0.2,0.2-0.3c0-0.1,0.1-0.2,0.1-0.4v-25.7 c0-0.2,0.1-0.4,0.3-0.5l19.8-8.3h0.2c0.1,0,0.2,0,0.3,0.1c0.1,0.1,0.2,0.3,0.2,0.4v17.1c0,0.6,0.4,1,1,1c0.6,0,1-0.4,1-1v-19.5 c0-0.1,0-0.2-0.1-0.3c0-0.1-0.1-0.2-0.2-0.3h-0.1l-0.1-0.1l-0.1,0l-0.1-0.1l-22.8-9.5C1052.2,455.4,1052,455.3,1051.9,455.3"></path> <path class="st12" d="M1035.3,482.6c-0.6,0-1,0.4-1,1v4.6c0,0.1,0,0.3,0.1,0.4l0.1,0.1l0.1,0.1l0.1,0.1v0.1 c0.1,0.1,0.2,0.2,0.3,0.2l4.6,1.9c0.1,0.1,0.2,0.1,0.4,0.1c0,0,0,0,0,0c0.4,0,0.8-0.2,0.9-0.6c0.1-0.2,0.1-0.5,0-0.8 c-0.1-0.3-0.3-0.5-0.6-0.6l-3.6-1.5c-0.2-0.1-0.3-0.3-0.3-0.5v-3.6C1036.3,483.1,1035.9,482.6,1035.3,482.6"></path> <path class="st12" d="M1064.3,497.9c-3.6,0-6.6-3-6.6-6.6c0-3.6,3-6.6,6.6-6.6l0-0.1h0.1c3.7,0,6.6,3,6.6,6.7 C1070.9,494.9,1068,497.9,1064.3,497.9 M1064.3,482.6c-4.8,0-8.7,3.9-8.7,8.7c0,4.8,3.9,8.6,8.7,8.6c1.8,0,3.5-0.6,5-1.6 c0.1-0.1,0.2-0.1,0.3-0.1c0.1,0,0.3,0.1,0.4,0.2l4.3,4.3c0.2,0.2,0.4,0.3,0.7,0.3c0,0,0,0,0,0c0,0,0,0,0.1,0c0.3,0,0.6-0.1,0.8-0.3 c0.4-0.4,0.3-1-0.1-1.4l-4.3-4.3c-0.2-0.2-0.2-0.4-0.1-0.7c1-1.5,1.6-3.2,1.6-5C1073,486.5,1069.1,482.6,1064.3,482.6"></path> <path class="st13" d="M121.8,497.9h-3.2v0.5c0,0.3-0.1,0.6-0.3,0.8c-0.2,0.2-0.5,0.3-0.8,0.3h-12c-0.3,0-0.6-0.1-0.8-0.3 c-0.2-0.2-0.3-0.5-0.3-0.8v-0.5h-2.7v0.7c0,0.3-0.1,0.6-0.3,0.8c-0.2,0.2-0.5,0.3-0.8,0.3h-12c-0.3,0-0.6-0.1-0.8-0.3 c-0.2-0.2-0.3-0.5-0.3-0.8v-0.7h-2.7v0.9c0,0.3-0.1,0.6-0.3,0.8c-0.2,0.2-0.5,0.3-0.8,0.3h-12c-0.3,0-0.6-0.1-0.8-0.3 c-0.2-0.2-0.3-0.5-0.3-0.8v-0.9h-2.8c-0.6,0-1.1,0.5-1.1,1.1s0.5,1.1,1.1,1.1h54.2c0.6,0,1.1-0.5,1.1-1.1S122.5,497.9,121.8,497.9"></path> <path class="st13" d="M117.5,459.7h-12c-0.3,0-0.6,0.1-0.8,0.3c-0.2,0.2-0.3,0.5-0.3,0.8v35h1.1h1.1V462h9.7v35.2h-9.7v-1.3h-1.1 h-1.1v2v0.5c0,0.3,0.1,0.6,0.3,0.8c0.2,0.2,0.5,0.3,0.8,0.3h12c0.3,0,0.6-0.1,0.8-0.3c0.2-0.2,0.3-0.5,0.3-0.8v-0.5v-37 c0-0.3-0.1-0.6-0.3-0.8C118.1,459.8,117.8,459.7,117.5,459.7"></path> <path class="st13" d="M100.5,467.3h-12c-0.3,0-0.6,0.1-0.8,0.3c-0.2,0.2-0.3,0.5-0.3,0.8v28.1h1.1h1.1v-26.9h9.7v27.8h-9.7v-0.9 h-1.1h-1.1v1.3v0.7c0,0.3,0.1,0.6,0.3,0.8c0.2,0.2,0.5,0.3,0.8,0.3h12c0.3,0,0.6-0.1,0.8-0.3c0.2-0.2,0.3-0.5,0.3-0.8v-0.7v-29.4 c0-0.3-0.1-0.6-0.3-0.8C101.1,467.4,100.8,467.3,100.5,467.3"></path> <path class="st13" d="M83.5,477.8h-12c-0.3,0-0.6,0.1-0.8,0.3c-0.2,0.2-0.3,0.5-0.3,0.8v18.5h1.1h1.1v-17.4h9.7v17.6h-9.7v-0.2 h-1.1h-1.1v0.4v0.9c0,0.3,0.1,0.6,0.3,0.8c0.2,0.2,0.5,0.3,0.8,0.3h12c0.3,0,0.6-0.1,0.8-0.3c0.2-0.2,0.3-0.5,0.3-0.8v-0.9v-18.9 c0-0.3-0.1-0.6-0.3-0.8C84.1,477.9,83.8,477.8,83.5,477.8"></path> <path class="st13" d="M95.1,448.6c-0.4,0-0.8,0.1-1.2,0.3c-0.8,0.4-1.2,1.3-1,2.1c0.3,0.7,1,0.7,1.8,0.7c0.2,0,0.4,0,0.6,0l3.6,0.1 c-3.2,2.4-26.8,20.2-27.4,20.6c-0.8,0.7-1,1.9-0.2,2.4c0.2,0.1,0.4,0.2,0.7,0.2c0.7,0,1.5-0.6,2.2-1.1c2.7-2.1,23.6-17.8,26.4-19.9 l-1.1,4.1c-0.2,0.5-0.2,1.1-0.1,1.6c0.2,0.4,0.6,0.7,1.1,0.7c0,0,0,0,0,0c0.6,0,1.1-0.2,1.5-0.6c0.4-0.4,0.6-0.9,0.7-1.5 c0.4-1.3,1.7-6.2,2-7.3c0.3-0.9,0.3-1.8-0.7-2.1c-0.4-0.1-0.9-0.1-1.4-0.1c-0.1,0-0.3,0-0.4,0l-7.1-0.1 C95.2,448.6,95.2,448.6,95.1,448.6"></path> <path class="st11" d="M1014.6,256.3H759.2c0.2,0.7,0.5,1.3,0.7,2h254.7V256.3"></path> <path class="st0" d="M759.2,256.3h-28v2h28.7C759.7,257.6,759.4,256.9,759.2,256.3"></path> <path class="st13" d="M435.2,487.8H136.1c-0.8,0-1.5,0.7-1.5,1.5c0,0.8,0.7,1.5,1.5,1.5h302.9C437.8,489.8,436.5,488.8,435.2,487.8 "></path> <path class="st2" d="M455.4,487.8h-20.2c1.3,1,2.5,2,3.8,3h16.3c0.8,0,1.5-0.7,1.5-1.5C456.9,488.5,456.2,487.8,455.4,487.8"></path> <path class="st12" d="M1014.6,488.3H693.6c-0.8,0.7-1.7,1.3-2.5,2h323.5V488.3"></path> <path class="st1" d="M693.6,488.3h-23.7v2h21.2C691.9,489.6,692.8,489,693.6,488.3"></path> <path class="st10" d="M139.6,255.8c-0.8,0-1.5,0.7-1.5,1.5c0,0.8,0.7,1.5,1.5,1.5l229.6,0.2c0.3-1,0.7-2,1.1-3L139.6,255.8"></path> <path class="st3" d="M370.2,256c-0.4,1-0.7,2-1.1,3l18.3,0c0.8,0,1.5-0.7,1.5-1.5c0-0.8-0.7-1.5-1.5-1.5L370.2,256"></path> <path class="st14" d="M282,194.1c-0.7,0.9-1.7,1.4-3,1.4c-2.2,0-3.5-1.3-3.7-3.5h8.5c0-0.3,0.1-0.9,0.1-1.2c0-3.2-1.8-5.8-5.2-5.8 c-3.4,0-5.5,2.6-5.5,6.1c0,3.7,2.1,6.2,5.8,6.2c1.9,0,3.4-0.7,4.5-1.9L282,194.1z M275.2,190.3c0.2-2,1.3-3.5,3.4-3.5 c2.1,0,3.1,1.5,3.2,3.5H275.2z M265.5,197.1h2.1v-7.2c0-1.5,1-2.8,2.9-2.8c0.5,0,0.9,0.1,1.1,0.2v-2c-0.3-0.1-0.6-0.2-1-0.2 c-1.1,0-2.2,0.5-3,2h0l0-1.8h-2V197.1z M256.8,186.8c2.4,0,3.7,2,3.7,4.4c0,2.3-1.3,4.4-3.7,4.4s-3.7-2-3.7-4.4 C253.1,188.8,254.3,186.8,256.8,186.8z M256.8,197.3c3.7,0,5.8-2.8,5.8-6.1c0-3.4-2.1-6.2-5.8-6.2c-3.7,0-5.8,2.7-5.8,6.2 C251,194.6,253.1,197.3,256.8,197.3z M233.3,186.8l0-1.6h-2v11.8h2.1v-7.4c0-1.6,1.1-2.8,2.9-2.8c1.6,0,2.4,1.1,2.4,2.4v7.8h2.1 v-7.4c0-1.6,1.1-2.8,2.9-2.8c1.7,0,2.4,1.1,2.4,2.4v7.8h2.1v-8.3c0-2.2-1.6-3.7-3.9-3.7c-1.6,0-3,0.6-3.8,2c-0.6-1.3-1.9-2-3.6-2 C235.1,185,234,185.7,233.3,186.8L233.3,186.8z M218.5,200.3h1.7l1.5-6.3h-2.2L218.5,200.3z M212.2,197.1h2.1v-7.2 c0-1.5,1-2.8,2.9-2.8c0.5,0,0.9,0.1,1.1,0.2v-2c-0.3-0.1-0.6-0.2-1-0.2c-1.1,0-2.2,0.5-3,2h0l0-1.8h-2V197.1z M207.4,194.1 c-0.7,0.9-1.7,1.4-3,1.4c-2.2,0-3.5-1.3-3.7-3.5h8.5c0-0.3,0.1-0.9,0.1-1.2c0-3.2-1.8-5.8-5.2-5.8c-3.4,0-5.5,2.6-5.5,6.1 c0,3.7,2.1,6.2,5.8,6.2c1.9,0,3.4-0.7,4.5-1.9L207.4,194.1z M200.7,190.3c0.2-2,1.3-3.5,3.4-3.5c2.1,0,3.1,1.5,3.2,3.5H200.7z M195.7,197.1v-11.8h-2.1v11.8H195.7z M193.5,182.4h2.3v-2.3h-2.3V182.4z M184.8,195.5c-2.3,0-3.6-1.8-3.6-4.3 c0-2.4,1.2-4.4,3.6-4.4c2.5,0,3.6,2.1,3.6,4.3C188.5,193.5,187.2,195.5,184.8,195.5z M185.2,197.3c3.3,0,5.3-2.8,5.3-6.2 c0-3.4-2-6.1-5.2-6.1c-1.7,0-3.1,0.8-4,2.1h0l0-1.9h-2v15.8h2.1v-5.7h0C182.3,196.6,183.6,197.3,185.2,197.3z M170.5,195.5 c-2.3,0-3.6-1.8-3.6-4.3c0-2.4,1.2-4.4,3.6-4.4c2.5,0,3.6,2.1,3.6,4.3C174.1,193.5,172.9,195.5,170.5,195.5z M170.9,197.3 c3.3,0,5.3-2.8,5.3-6.2c0-3.4-2-6.1-5.2-6.1c-1.7,0-3.1,0.8-4,2.1h0l0-1.9h-2v15.8h2.1v-5.7h0C167.9,196.6,169.2,197.3,170.9,197.3 z M156,195.6c-1.4,0-2.2-0.7-2.2-1.8c0-1.2,1-1.6,2.3-1.8c1-0.1,2.2-0.2,3-0.2v0.7C159.2,194.1,157.9,195.6,156,195.6z M161.2,197.1v-8c0-2.6-1.8-4-4.6-4c-2.2,0-3.9,0.9-4.5,2.7l1.7,0.8c0.4-1.1,1.2-1.8,2.7-1.8c1.8,0,2.6,1.1,2.6,2.3v1.1 c-1.9,0.1-3.9,0.2-5.1,0.6c-1.5,0.5-2.3,1.5-2.3,3.1c0,2.1,1.5,3.6,3.8,3.6c1.7,0,2.9-0.8,3.6-2h0l0,1.7H161.2z M137.5,197.1v-7.5 h8.8v7.5h2.2v-16.9h-2.2v7.4h-8.8v-7.4h-2.2v16.9H137.5z"></path> <path class="st14" d="M344.7,223.7c3.2,0,5-1.5,5-3.7c0-2.4-2.1-3-4.3-3.5c-2-0.4-3.1-0.7-3.1-1.8c0-0.9,0.8-1.6,2.5-1.6 c1.3,0,2.4,0.4,3.4,1.4l1.3-1.4c-1.2-1.1-2.7-1.7-4.6-1.7c-3.1,0-4.7,1.6-4.7,3.6c0,2.3,2,3,4.2,3.5c2,0.4,3.2,0.7,3.2,1.8 c0,1-0.9,1.7-2.8,1.7c-1.4,0-2.7-0.5-3.7-1.5l-1.3,1.4C341,223.1,342.6,223.7,344.7,223.7z M336.1,220.5c-0.7,0.9-1.7,1.4-3,1.4 c-2.2,0-3.5-1.3-3.7-3.5h8.5c0-0.3,0.1-0.9,0.1-1.2c0-3.2-1.8-5.8-5.2-5.8c-3.4,0-5.5,2.6-5.5,6.1c0,3.7,2.1,6.2,5.8,6.2 c1.9,0,3.4-0.7,4.5-1.9L336.1,220.5z M329.4,216.7c0.2-2,1.3-3.5,3.4-3.5c2.1,0,3.1,1.5,3.2,3.5H329.4z M323.3,220.5 c-0.7,0.9-1.7,1.4-3,1.4c-2.2,0-3.5-1.3-3.7-3.5h8.5c0-0.3,0.1-0.9,0.1-1.2c0-3.2-1.8-5.8-5.2-5.8c-3.4,0-5.5,2.6-5.5,6.1 c0,3.7,2.1,6.2,5.8,6.2c1.9,0,3.4-0.7,4.5-1.9L323.3,220.5z M316.6,216.7c0.2-2,1.3-3.5,3.4-3.5c2.1,0,3.1,1.5,3.2,3.5H316.6z M311,211.7l-3.5,9.4h0l-3.5-9.4h-2.3l4.7,12l0,0.1c-0.5,1.7-1.3,2.2-2.4,2.2c-0.4,0-0.7-0.1-1-0.2v1.7c0.4,0.1,0.8,0.2,1.4,0.2 c1.8,0,2.8-0.8,3.8-3.4l5-12.7H311z M294.5,213.2c2.4,0,3.7,2,3.7,4.4c0,2.3-1.3,4.4-3.7,4.4s-3.7-2-3.7-4.4 C290.8,215.2,292.1,213.2,294.5,213.2z M294.5,223.7c3.7,0,5.8-2.8,5.8-6.1c0-3.4-2.1-6.2-5.8-6.2c-3.7,0-5.8,2.7-5.8,6.2 C288.7,221,290.8,223.7,294.5,223.7z M285.8,223.5v-16.9h-2.1v16.9H285.8z M275,221.9c-2.3,0-3.6-1.8-3.6-4.3 c0-2.4,1.2-4.4,3.6-4.4c2.5,0,3.6,2.1,3.6,4.3C278.6,219.9,277.4,221.9,275,221.9z M275.4,223.7c3.3,0,5.3-2.8,5.3-6.2 c0-3.4-2-6.1-5.2-6.1c-1.7,0-3.1,0.8-4,2.1h0l0-1.9h-2v15.8h2.1v-5.7h0C272.4,223,273.7,223.7,275.4,223.7z M250.9,213.2l0-1.6h-2 v11.8h2.1V216c0-1.6,1.1-2.8,2.9-2.8c1.6,0,2.4,1.1,2.4,2.4v7.8h2.1V216c0-1.6,1.1-2.8,2.9-2.8c1.7,0,2.4,1.1,2.4,2.4v7.8h2.1v-8.3 c0-2.2-1.6-3.7-3.9-3.7c-1.6,0-3,0.6-3.8,2c-0.6-1.3-1.9-2-3.6-2C252.8,211.4,251.6,212.1,250.9,213.2L250.9,213.2z M246.1,223.5 v-1.9h-8.8v-5.6h7.6V214h-7.6v-5.5h8.6v-1.9h-10.8v16.9H246.1z M219.9,221.9c-2.4,0-3.5-2.1-3.5-4.3c0-2.3,1.1-4.4,3.6-4.4 c2.3,0,3.6,1.7,3.6,4.3C223.6,220.1,222.3,221.9,219.9,221.9z M219.5,223.7c1.6,0,3-0.7,4-2.2h0l0,1.9h2v-16.9h-2.1v6.8h0 c-0.9-1.3-2.3-2-3.9-2c-3.3,0-5.4,2.8-5.4,6.2C214.3,221,216.2,223.7,219.5,223.7z M210.3,220.5c-0.7,0.9-1.7,1.4-3,1.4 c-2.2,0-3.5-1.3-3.7-3.5h8.5c0-0.3,0.1-0.9,0.1-1.2c0-3.2-1.8-5.8-5.2-5.8c-3.4,0-5.5,2.6-5.5,6.1c0,3.7,2.1,6.2,5.8,6.2 c1.9,0,3.4-0.7,4.5-1.9L210.3,220.5z M203.5,216.7c0.2-2,1.3-3.5,3.4-3.5c2.1,0,3.1,1.5,3.2,3.5H203.5z M193,221.5 c-2.4,0-3.5-2-3.5-4.1c0-2.2,1.2-4.1,3.5-4.1c2.2,0,3.5,1.8,3.5,4.1C196.5,219.6,195.2,221.5,193,221.5z M198.5,211.7h-2l-0.1,1.7 h0c-0.8-1.2-2.1-1.9-3.8-1.9c-3.3,0-5.2,2.8-5.2,6c0,3.2,1.9,5.9,5,5.9c1.6,0,3-0.7,3.9-2.1h0v1c0,2.8-1.7,3.8-3.9,3.8 c-1.6,0-2.6-0.5-3.5-1.1l-0.9,1.7c1.1,0.7,2.6,1.2,4.4,1.2c3.6,0,6-1.8,6-5.6V211.7z M179.3,222c-1.4,0-2.2-0.7-2.2-1.8 c0-1.2,1-1.6,2.3-1.8c1-0.1,2.2-0.2,3-0.2v0.7C182.4,220.5,181.2,222,179.3,222z M184.5,223.5v-8c0-2.6-1.8-4-4.6-4 c-2.2,0-3.9,0.9-4.5,2.7l1.7,0.8c0.4-1.1,1.2-1.8,2.7-1.8c1.8,0,2.6,1.1,2.6,2.3v1.1c-1.9,0.1-3.9,0.2-5.1,0.6 c-1.5,0.5-2.3,1.5-2.3,3.1c0,2.1,1.5,3.6,3.8,3.6c1.7,0,2.9-0.8,3.6-2h0l0,1.7H184.5z M166.4,221.5c-2.4,0-3.5-2-3.5-4.1 c0-2.2,1.2-4.1,3.5-4.1c2.2,0,3.5,1.8,3.5,4.1C169.9,219.6,168.7,221.5,166.4,221.5z M172,211.7h-2l-0.1,1.7h0 c-0.8-1.2-2.1-1.9-3.8-1.9c-3.3,0-5.2,2.8-5.2,6c0,3.2,1.9,5.9,5,5.9c1.6,0,3-0.7,3.9-2.1h0v1c0,2.8-1.7,3.8-3.9,3.8 c-1.6,0-2.6-0.5-3.5-1.1l-0.9,1.7c1.1,0.7,2.6,1.2,4.4,1.2c3.6,0,6-1.8,6-5.6V211.7z M147.9,223.5h2.1v-7c0-1.8,1.3-3.2,3.2-3.2 c1.8,0,2.7,1.2,2.7,2.8v7.5h2.1v-7.9c0-2.5-1.6-4.1-4.2-4.1c-1.8,0-3.1,0.8-3.8,2h0l0-1.7h-2V223.5z M143.1,220.5 c-0.7,0.9-1.7,1.4-3,1.4c-2.2,0-3.5-1.3-3.7-3.5h8.5c0-0.3,0.1-0.9,0.1-1.2c0-3.2-1.8-5.8-5.2-5.8c-3.4,0-5.5,2.6-5.5,6.1 c0,3.7,2.1,6.2,5.8,6.2c1.9,0,3.4-0.7,4.5-1.9L143.1,220.5z M136.4,216.7c0.2-2,1.3-3.5,3.4-3.5c2.1,0,3.1,1.5,3.2,3.5H136.4z"></path> <path class="st14" d="M236.6,432.2h2.1v-7c0-1.8,1.3-3.2,3.2-3.2c1.8,0,2.7,1.2,2.7,2.8v7.5h2.1v-7.9c0-2.5-1.6-4.1-4.2-4.1 c-1.8,0-3.1,0.8-3.8,2h0l0-1.7h-2V432.2z M232.9,432.2v-11.8h-2.1v11.8H232.9z M230.7,417.6h2.3v-2.3h-2.3V417.6z M220.4,429.3 c-0.7,0.9-1.7,1.4-3,1.4c-2.2,0-3.5-1.3-3.7-3.5h8.5c0-0.3,0.1-0.9,0.1-1.2c0-3.2-1.8-5.8-5.2-5.8c-3.4,0-5.5,2.6-5.5,6.1 c0,3.7,2.1,6.2,5.8,6.2c1.9,0,3.4-0.7,4.5-1.9L220.4,429.3z M213.7,425.4c0.2-2,1.3-3.5,3.4-3.5c2.1,0,3.1,1.5,3.2,3.5H213.7z M204.7,432.5c3.2,0,5-1.5,5-3.7c0-2.4-2.1-3-4.3-3.5c-2-0.4-3.1-0.7-3.1-1.8c0-0.9,0.8-1.6,2.5-1.6c1.3,0,2.4,0.4,3.4,1.4l1.3-1.4 c-1.2-1.1-2.7-1.7-4.6-1.7c-3.1,0-4.7,1.6-4.7,3.6c0,2.3,2,3,4.2,3.5c2,0.4,3.2,0.7,3.2,1.8c0,1-0.9,1.7-2.8,1.7 c-1.4,0-2.7-0.5-3.7-1.5l-1.3,1.4C201,431.8,202.6,432.5,204.7,432.5z M192,430.7c-1.4,0-2.2-0.7-2.2-1.8c0-1.2,1-1.6,2.3-1.8 c1-0.1,2.2-0.2,3-0.2v0.7C195.1,429.3,193.9,430.7,192,430.7z M197.2,432.2v-8c0-2.6-1.8-4-4.6-4c-2.2,0-3.9,0.9-4.5,2.7l1.7,0.8 c0.4-1.1,1.2-1.8,2.7-1.8c1.8,0,2.6,1.1,2.6,2.3v1.1c-1.9,0.1-3.9,0.2-5.1,0.6c-1.5,0.5-2.3,1.5-2.3,3.1c0,2.1,1.5,3.6,3.8,3.6 c1.7,0,2.9-0.8,3.6-2h0l0,1.7H197.2z M183.6,429.3c-0.7,0.9-1.7,1.4-3,1.4c-2.2,0-3.5-1.3-3.7-3.5h8.5c0-0.3,0.1-0.9,0.1-1.2 c0-3.2-1.8-5.8-5.2-5.8c-3.4,0-5.5,2.6-5.5,6.1c0,3.7,2.1,6.2,5.8,6.2c1.9,0,3.4-0.7,4.5-1.9L183.6,429.3z M176.9,425.4 c0.2-2,1.3-3.5,3.4-3.5c2.1,0,3.1,1.5,3.2,3.5H176.9z M167.1,432.2h2.1V425c0-1.5,1-2.8,2.9-2.8c0.5,0,0.9,0.1,1.1,0.2v-2 c-0.3-0.1-0.6-0.2-1-0.2c-1.1,0-2.2,0.5-3,2h0l0-1.8h-2V432.2z M160.1,432.5c2.3,0,4-1.1,4.8-2.8l-1.6-0.9 c-0.6,1.1-1.5,1.9-3.1,1.9c-2.5,0-3.7-2-3.7-4.4c0-2.4,1.3-4.4,3.6-4.4c1.5,0,2.4,0.8,3,2l1.7-1c-0.9-1.7-2.5-2.8-4.7-2.8 c-3.6,0-5.7,2.7-5.7,6.2C154.3,429.8,156.5,432.5,160.1,432.5z M141.3,432.2h2.1v-7c0-1.8,1.3-3.2,3.2-3.2c1.8,0,2.7,1.2,2.7,2.8 v7.5h2.1v-7.9c0-2.5-1.6-4.1-4.2-4.1c-1.8,0-3.1,0.8-3.8,2h0l0-1.7h-2V432.2z M137.5,432.2v-16.9h-2.2v16.9H137.5z"></path> <path class="st14" d="M261.4,446.8l-3.5,9.4h0l-3.5-9.4h-2.3l4.7,12l0,0.1c-0.5,1.7-1.3,2.2-2.4,2.2c-0.4,0-0.7-0.1-1-0.2v1.7 c0.4,0.1,0.8,0.2,1.4,0.2c1.8,0,2.8-0.8,3.8-3.4l5-12.7H261.4z M243.7,448.5h2.4v7c0,2.1,1,3.3,3.3,3.3c0.7,0,1.2-0.1,1.7-0.2V457 c-0.2,0-0.5,0.1-0.9,0.1c-1.5,0-1.9-0.6-1.9-2v-6.5h2.8v-1.7h-2.8v-3.7h-2.1v3.7h-2.4V448.5z M241.5,458.6v-11.8h-2.1v11.8H241.5z M239.3,444h2.3v-2.3h-2.3V444z M235,446.8l-3.5,9.4h0l-3.5-9.4h-2.3l4.6,11.8h2.2l4.7-11.8H235z M223.4,458.6v-11.8h-2.1v11.8 H223.4z M221.2,444h2.3v-2.3h-2.3V444z M211.5,448.5h2.4v7c0,2.1,1,3.3,3.3,3.3c0.7,0,1.2-0.1,1.7-0.2V457c-0.2,0-0.5,0.1-0.9,0.1 c-1.5,0-1.9-0.6-1.9-2v-6.5h2.8v-1.7H216v-3.7h-2.1v3.7h-2.4V448.5z M205.7,458.9c2.3,0,4-1.1,4.8-2.8l-1.6-0.9 c-0.6,1.1-1.5,1.9-3.1,1.9c-2.5,0-3.7-2-3.7-4.4c0-2.4,1.3-4.4,3.6-4.4c1.5,0,2.4,0.8,3,2l1.7-1c-0.9-1.7-2.5-2.8-4.7-2.8 c-3.6,0-5.7,2.7-5.7,6.2C200,456.2,202.1,458.9,205.7,458.9z M197,446.8h-2.1v7c0,1.8-1.3,3.2-3.2,3.2c-1.8,0-2.7-1.2-2.7-2.8v-7.5 h-2.1v7.9c0,2.5,1.6,4.1,4.2,4.1c1.7,0,3.1-0.8,3.8-2h0l0,1.7h2V446.8z M177.5,457c-2.4,0-3.5-2.1-3.5-4.3c0-2.3,1.1-4.4,3.6-4.4 c2.3,0,3.6,1.7,3.6,4.3C181.2,455.2,179.9,457,177.5,457z M177.2,458.9c1.6,0,3-0.7,4-2.2h0l0,1.9h2v-16.9h-2.1v6.8h0 c-0.9-1.3-2.3-2-3.9-2c-3.3,0-5.4,2.8-5.4,6.2C171.9,456.1,173.9,458.9,177.2,458.9z M163.9,448.3c2.4,0,3.7,2,3.7,4.4 c0,2.3-1.3,4.4-3.7,4.4s-3.7-2-3.7-4.4C160.2,450.4,161.4,448.3,163.9,448.3z M163.9,458.9c3.7,0,5.8-2.8,5.8-6.1 c0-3.4-2.1-6.2-5.8-6.2c-3.7,0-5.8,2.7-5.8,6.2C158.1,456.1,160.2,458.9,163.9,458.9z M150.5,458.6h2.1v-7.2c0-1.5,1-2.8,2.9-2.8 c0.5,0,0.9,0.1,1.1,0.2v-2c-0.3-0.1-0.6-0.2-1-0.2c-1.1,0-2.2,0.5-3,2h0l0-1.8h-2V458.6z M137.5,450.7v-7.1h4.5 c2.1,0,3.7,1.2,3.7,3.5c0,2.3-1.6,3.5-3.7,3.5H137.5z M135.2,441.7v16.9h2.2v-6h4.4c3.5,0,6.1-2,6.1-5.5s-2.6-5.4-6.1-5.4H135.2z"></path> <path class="st15" d="M184.3,139.8c4.1,0,6.7,4.3,6.7,11c0,2.5-0.5,5.3-1.4,7.2c-1,2.2-3.1,3.6-5.3,3.6c-2.2,0-4.3-1.5-5.3-3.6 c-0.9-2-1.4-4.7-1.4-7.3C177.6,144.2,180.3,139.8,184.3,139.8z M184.3,133.1c-3.8,0-7.4,1.3-10,3.7c-3.3,3-5,7.8-5,13.9 c0,10.9,5.8,17.6,15.1,17.6c9.2,0,15.1-6.8,15.1-17.3c0-6.5-1.7-11.1-5-14.2C191.7,134.4,188.3,133.1,184.3,133.1z M157.3,167.6 v-33.7h-7.2c-0.4,1.5-0.7,2.2-1.6,3.1c-1.6,1.6-4.2,2.5-7.6,2.5h-1.1v5.6h9.2v22.5H157.3z"></path> <rect x="203.7" y="152.1" class="st15" width="28" height="4.5"></rect> <path class="st15" d="M341.4,149.6c2.7,0,4.1,2.5,4.1,7.1c0,4.4-1.5,6.9-4.1,6.9c-2.7,0-4.1-2.5-4.1-7S338.7,149.6,341.4,149.6z M341.4,145.3c-5.9,0-9.8,4.5-9.8,11.3c0,6.9,3.9,11.3,9.8,11.3c5.9,0,9.8-4.5,9.8-11.2C351.2,149.7,347.4,145.3,341.4,145.3z M332.6,134.3l-15.8,33.3h5.5l15.8-33.3H332.6z M313.7,137.9c2.7,0,4.2,2.5,4.2,7.1c0,4.4-1.5,6.9-4.1,6.9c-2.7,0-4.2-2.5-4.2-7 C309.6,140.4,311,137.9,313.7,137.9z M313.7,133.6c-5.9,0-9.8,4.5-9.8,11.3c0,6.9,3.9,11.3,9.9,11.3c5.9,0,9.8-4.5,9.8-11.2 C323.6,138,319.7,133.6,313.7,133.6z M285.2,139.8c4.1,0,6.7,4.3,6.7,11c0,2.5-0.5,5.3-1.4,7.2c-1,2.2-3.1,3.6-5.3,3.6 c-2.2,0-4.3-1.5-5.3-3.6c-0.9-2-1.4-4.7-1.4-7.3C278.5,144.2,281.2,139.8,285.2,139.8z M285.1,133.1c-3.8,0-7.4,1.3-10,3.7 c-3.3,3-5,7.8-5,13.9c0,10.9,5.8,17.6,15.1,17.6c9.2,0,15.1-6.8,15.1-17.3c0-6.5-1.7-11.1-5-14.2 C292.6,134.4,289.1,133.1,285.1,133.1z M263.9,133.9h-23.5l-3.5,19.6h8.2c1.6-2.2,3.6-3.2,6.4-3.2c3.8,0,6.5,2.3,6.5,5.7 c0,3.4-2.8,5.7-6.8,5.7c-3.4,0-5.6-1.5-6.1-4.1h-8.7c0.4,6.7,6,10.8,15,10.8c9.2,0,15.1-5,15.1-12.6c0-7-5.2-12-12.6-12 c-3.2,0-5.6,0.7-8.4,2.3l0.9-5.5h17.5V133.9z"></path> <path class="st15" d="M184.3,371c4.1,0,6.7,4.3,6.7,11c0,2.5-0.5,5.3-1.4,7.2c-1,2.2-3.1,3.6-5.3,3.6c-2.2,0-4.3-1.5-5.3-3.6 c-0.9-2-1.4-4.7-1.4-7.3C177.6,375.4,180.3,371,184.3,371z M184.3,364.3c-3.8,0-7.4,1.3-10,3.7c-3.3,3-5,7.8-5,13.9 c0,10.9,5.8,17.6,15.1,17.6c9.2,0,15.1-6.8,15.1-17.3c0-6.5-1.7-11.1-5-14.2C191.7,365.6,188.3,364.3,184.3,364.3z M163.8,398.8 v-6.9h-17c0.7-1.3,1.5-2,5.1-4.1l2.1-1.2c5.1-3.1,6.2-3.9,8-6c1.5-1.6,2.2-3.7,2.2-5.9c0-6.2-5.3-10.2-13.3-10.2 c-5.1,0-9.2,1.6-11.8,4.5c-1.8,2.1-2.4,4.1-2.8,8.1h8.7c0.1-1.8,0.2-2.7,0.7-3.5c0.8-1.5,2.6-2.4,4.7-2.4c2.7,0,4.6,1.6,4.6,3.8 c0,1.5-0.7,2.7-2.2,3.7c-1.1,0.8-1.1,0.8-4.7,2.9l-3,1.7c-7.1,4-8.7,6.9-8.9,15.7H163.8z"></path> <rect x="203.7" y="383.3" class="st15" width="28" height="4.5"></rect> <path class="st15" d="M341.4,380.8c2.7,0,4.1,2.5,4.1,7.1c0,4.4-1.5,6.9-4.1,6.9c-2.7,0-4.1-2.5-4.1-7S338.7,380.8,341.4,380.8z M341.4,376.4c-5.9,0-9.8,4.5-9.8,11.3c0,6.9,3.9,11.3,9.8,11.3c5.9,0,9.8-4.5,9.8-11.2C351.2,380.9,347.4,376.4,341.4,376.4z M332.6,365.5l-15.8,33.3h5.5l15.8-33.3H332.6z M313.7,369.1c2.7,0,4.2,2.5,4.2,7.1c0,4.4-1.5,6.9-4.1,6.9c-2.7,0-4.2-2.5-4.2-7 C309.6,371.6,311,369.1,313.7,369.1z M313.7,364.7c-5.9,0-9.8,4.5-9.8,11.3c0,6.9,3.9,11.3,9.9,11.3c5.9,0,9.8-4.5,9.8-11.2 C323.6,369.2,319.7,364.7,313.7,364.7z M285.2,371c4.1,0,6.7,4.3,6.7,11c0,2.5-0.5,5.3-1.4,7.2c-1,2.2-3.1,3.6-5.3,3.6 c-2.2,0-4.3-1.5-5.3-3.6c-0.9-2-1.4-4.7-1.4-7.3C278.5,375.4,281.2,371,285.2,371z M285.1,364.3c-3.8,0-7.4,1.3-10,3.7 c-3.3,3-5,7.8-5,13.9c0,10.9,5.8,17.6,15.1,17.6c9.2,0,15.1-6.8,15.1-17.3c0-6.5-1.7-11.1-5-14.2 C292.6,365.6,289.1,364.3,285.1,364.3z M263.9,365.1h-23.5l-3.5,19.6h8.2c1.6-2.2,3.6-3.2,6.4-3.2c3.8,0,6.5,2.3,6.5,5.7 c0,3.4-2.8,5.7-6.8,5.7c-3.4,0-5.6-1.5-6.1-4.1h-8.7c0.4,6.7,6,10.8,15,10.8c9.2,0,15.1-5,15.1-12.6c0-7-5.2-12-12.6-12 c-3.2,0-5.6,0.7-8.4,2.3l0.9-5.5h17.5V365.1z"></path> <path class="st14" d="M857,197.1h2.1v-7.2c0-1.5,1-2.8,2.9-2.8c0.5,0,0.9,0.1,1.1,0.2v-2c-0.3-0.1-0.6-0.2-1-0.2 c-1.1,0-2.2,0.5-3,2h0l0-1.8h-2V197.1z M852.3,194.1c-0.7,0.9-1.7,1.4-3,1.4c-2.2,0-3.5-1.3-3.7-3.5h8.5c0-0.3,0.1-0.9,0.1-1.2 c0-3.2-1.8-5.8-5.2-5.8c-3.4,0-5.5,2.6-5.5,6.1c0,3.7,2.1,6.2,5.8,6.2c1.9,0,3.4-0.7,4.5-1.9L852.3,194.1z M845.6,190.3 c0.2-2,1.3-3.5,3.4-3.5c2.1,0,3.1,1.5,3.2,3.5H845.6z M834.6,187h2.4v7c0,2.1,1,3.3,3.3,3.3c0.7,0,1.2-0.1,1.7-0.2v-1.7 c-0.2,0-0.5,0.1-0.9,0.1c-1.5,0-1.9-0.6-1.9-2V187h2.8v-1.7H839v-3.7H837v3.7h-2.4V187z M828.4,197.3c3.2,0,5-1.5,5-3.7 c0-2.4-2.1-3-4.3-3.5c-2-0.4-3.1-0.7-3.1-1.8c0-0.9,0.8-1.6,2.5-1.6c1.3,0,2.4,0.4,3.4,1.4l1.3-1.4c-1.2-1.1-2.7-1.7-4.6-1.7 c-3.1,0-4.7,1.6-4.7,3.6c0,2.3,2,3,4.2,3.5c2,0.4,3.2,0.7,3.2,1.8c0,1-0.9,1.7-2.8,1.7c-1.4,0-2.7-0.5-3.7-1.5l-1.3,1.4 C824.7,196.7,826.3,197.3,828.4,197.3z M815.7,195.6c-1.4,0-2.2-0.7-2.2-1.8c0-1.2,1-1.6,2.3-1.8c1-0.1,2.2-0.2,3-0.2v0.7 C818.9,194.1,817.6,195.6,815.7,195.6z M820.9,197.1v-8c0-2.6-1.8-4-4.6-4c-2.2,0-3.9,0.9-4.5,2.7l1.7,0.8c0.4-1.1,1.2-1.8,2.7-1.8 c1.8,0,2.6,1.1,2.6,2.3v1.1c-1.9,0.1-3.9,0.2-5.1,0.6c-1.5,0.5-2.3,1.5-2.3,3.1c0,2.1,1.5,3.6,3.8,3.6c1.7,0,2.9-0.8,3.6-2h0l0,1.7 H820.9z M801.7,197.1v-7.3h7.5v-1.9h-7.5v-5.7h8.6v-1.9h-10.8v16.9H801.7z"></path> <path class="st14" d="M955.7,213.4h2.4v7c0,2.1,1,3.3,3.3,3.3c0.7,0,1.2-0.1,1.7-0.2v-1.7c-0.2,0-0.5,0.1-0.9,0.1 c-1.5,0-1.9-0.6-1.9-2v-6.5h2.8v-1.7h-2.8v-3.7h-2.1v3.7h-2.4V213.4z M952.7,220.5c-0.7,0.9-1.7,1.4-3,1.4c-2.2,0-3.5-1.3-3.7-3.5 h8.5c0-0.3,0.1-0.9,0.1-1.2c0-3.2-1.8-5.8-5.2-5.8c-3.4,0-5.5,2.6-5.5,6.1c0,3.7,2.1,6.2,5.8,6.2c1.9,0,3.4-0.7,4.5-1.9 L952.7,220.5z M945.9,216.7c0.2-2,1.3-3.5,3.4-3.5c2.1,0,3.1,1.5,3.2,3.5H945.9z M940.2,223.5h2.5l-4.2-6.1l4-5.7H940l-3.3,4.8 h-1.8v-9.9h-2.1v16.9h2.1v-5.3h1.7L940.2,223.5z M924.3,223.5h2.1v-7.2c0-1.5,1-2.8,2.9-2.8c0.5,0,0.9,0.1,1.1,0.2v-2 c-0.3-0.1-0.6-0.2-1-0.2c-1.1,0-2.2,0.5-3,2h0l0-1.8h-2V223.5z M915.4,222c-1.4,0-2.2-0.7-2.2-1.8c0-1.2,1-1.6,2.3-1.8 c1-0.1,2.2-0.2,3-0.2v0.7C918.6,220.5,917.3,222,915.4,222z M920.6,223.5v-8c0-2.6-1.8-4-4.6-4c-2.2,0-3.9,0.9-4.5,2.7l1.7,0.8 c0.4-1.1,1.2-1.8,2.7-1.8c1.8,0,2.6,1.1,2.6,2.3v1.1c-1.9,0.1-3.9,0.2-5.1,0.6c-1.5,0.5-2.3,1.5-2.3,3.1c0,2.1,1.5,3.6,3.8,3.6 c1.7,0,2.9-0.8,3.6-2h0l0,1.7H920.6z M904.8,206.6l-5.3,14h0l-5.3-14h-3.2v16.9h2.2v-13.7h0l5.3,13.7h2l5.3-13.7h0v13.7h2.2v-16.9 H904.8z M882.3,217.9h5.2V216h-5.2V217.9z M874.2,213.2c2.4,0,3.7,2,3.7,4.4c0,2.3-1.3,4.4-3.7,4.4s-3.7-2-3.7-4.4 C870.5,215.2,871.7,213.2,874.2,213.2z M874.2,223.7c3.7,0,5.8-2.8,5.8-6.1c0-3.4-2.1-6.2-5.8-6.2c-3.7,0-5.8,2.7-5.8,6.2 C868.4,221,870.5,223.7,874.2,223.7z M859.5,213.4h2.4v7c0,2.1,1,3.3,3.3,3.3c0.7,0,1.2-0.1,1.7-0.2v-1.7c-0.2,0-0.5,0.1-0.9,0.1 c-1.5,0-1.9-0.6-1.9-2v-6.5h2.8v-1.7H864v-3.7h-2.1v3.7h-2.4V213.4z M852.7,217.9h5.2V216h-5.2V217.9z M848.5,220.5 c-0.7,0.9-1.7,1.4-3,1.4c-2.2,0-3.5-1.3-3.7-3.5h8.5c0-0.3,0.1-0.9,0.1-1.2c0-3.2-1.8-5.8-5.2-5.8c-3.4,0-5.5,2.6-5.5,6.1 c0,3.7,2.1,6.2,5.8,6.2c1.9,0,3.4-0.7,4.5-1.9L848.5,220.5z M841.8,216.7c0.2-2,1.3-3.5,3.4-3.5c2.1,0,3.1,1.5,3.2,3.5H841.8z M821.9,213.2l0-1.6h-2v11.8h2.1V216c0-1.6,1.1-2.8,2.9-2.8c1.6,0,2.4,1.1,2.4,2.4v7.8h2.1V216c0-1.6,1.1-2.8,2.9-2.8 c1.7,0,2.4,1.1,2.4,2.4v7.8h2.1v-8.3c0-2.2-1.6-3.7-3.9-3.7c-1.6,0-3,0.6-3.8,2c-0.6-1.3-1.9-2-3.6-2 C823.8,211.4,822.7,212.1,821.9,213.2L821.9,213.2z M816.2,223.5v-11.8h-2.1v11.8H816.2z M814,208.8h2.3v-2.3H814V208.8z M805.9,223.5v-15h5.9v-1.9h-13.9v1.9h5.9v15H805.9z"></path> <path class="st14" d="M946.5,432.5c3.2,0,5-1.5,5-3.7c0-2.4-2.1-3-4.3-3.5c-2-0.4-3.1-0.7-3.1-1.8c0-0.9,0.8-1.6,2.5-1.6 c1.3,0,2.4,0.4,3.4,1.4l1.3-1.4c-1.2-1.1-2.7-1.7-4.6-1.7c-3.1,0-4.7,1.6-4.7,3.6c0,2.3,2,3,4.2,3.5c2,0.4,3.2,0.7,3.2,1.8 c0,1-0.9,1.7-2.8,1.7c-1.4,0-2.7-0.5-3.7-1.5l-1.3,1.4C942.8,431.8,944.4,432.5,946.5,432.5z M932.9,422.1h2.4v7 c0,2.1,1,3.3,3.3,3.3c0.7,0,1.2-0.1,1.7-0.2v-1.7c-0.2,0-0.5,0.1-0.9,0.1c-1.5,0-1.9-0.6-1.9-2v-6.5h2.8v-1.7h-2.8v-3.7h-2.1v3.7 h-2.4V422.1z M920.8,432.2h2.1v-7c0-1.8,1.3-3.2,3.2-3.2c1.8,0,2.7,1.2,2.7,2.8v7.5h2.1v-7.9c0-2.5-1.6-4.1-4.2-4.1 c-1.8,0-3.1,0.8-3.8,2h0l0-1.7h-2V432.2z M916,429.3c-0.7,0.9-1.7,1.4-3,1.4c-2.2,0-3.5-1.3-3.7-3.5h8.5c0-0.3,0.1-0.9,0.1-1.2 c0-3.2-1.8-5.8-5.2-5.8c-3.4,0-5.5,2.6-5.5,6.1c0,3.7,2.1,6.2,5.8,6.2c1.9,0,3.4-0.7,4.5-1.9L916,429.3z M909.3,425.4 c0.2-2,1.3-3.5,3.4-3.5c2.1,0,3.1,1.5,3.2,3.5H909.3z M889.4,422l0-1.6h-2v11.8h2.1v-7.4c0-1.6,1.1-2.8,2.9-2.8 c1.6,0,2.4,1.1,2.4,2.4v7.8h2.1v-7.4c0-1.6,1.1-2.8,2.9-2.8c1.7,0,2.4,1.1,2.4,2.4v7.8h2.1v-8.3c0-2.2-1.6-3.7-3.9-3.7 c-1.6,0-3,0.6-3.8,2c-0.6-1.3-1.9-2-3.6-2C891.3,420.2,890.2,420.9,889.4,422L889.4,422z M882.7,429.3c-0.7,0.9-1.7,1.4-3,1.4 c-2.2,0-3.5-1.3-3.7-3.5h8.5c0-0.3,0.1-0.9,0.1-1.2c0-3.2-1.8-5.8-5.2-5.8c-3.4,0-5.5,2.6-5.5,6.1c0,3.7,2.1,6.2,5.8,6.2 c1.9,0,3.4-0.7,4.5-1.9L882.7,429.3z M875.9,425.4c0.2-2,1.3-3.5,3.4-3.5c2.1,0,3.1,1.5,3.2,3.5H875.9z M870.3,420.4l-3.5,9.4h0 l-3.5-9.4H861l4.6,11.8h2.2l4.7-11.8H870.3z M853.9,421.9c2.4,0,3.7,2,3.7,4.4c0,2.3-1.3,4.4-3.7,4.4s-3.7-2-3.7-4.4 C850.2,424,851.4,421.9,853.9,421.9z M853.9,432.5c3.7,0,5.8-2.8,5.8-6.1c0-3.4-2.1-6.2-5.8-6.2c-3.7,0-5.8,2.7-5.8,6.2 C848.1,429.7,850.2,432.5,853.9,432.5z M840.5,432.2h2.1V425c0-1.5,1-2.8,2.9-2.8c0.5,0,0.9,0.1,1.1,0.2v-2c-0.3-0.1-0.6-0.2-1-0.2 c-1.1,0-2.2,0.5-3,2h0l0-1.8h-2V432.2z M831.7,430.6c-2.3,0-3.6-1.8-3.6-4.3c0-2.4,1.2-4.4,3.6-4.4c2.5,0,3.6,2.1,3.6,4.3 C835.4,428.7,834.1,430.6,831.7,430.6z M832.1,432.5c3.3,0,5.3-2.8,5.3-6.2c0-3.4-2-6.1-5.2-6.1c-1.7,0-3.1,0.8-4,2.1h0l0-1.9h-2 v15.8h2.1v-5.7h0C829.1,431.8,830.4,432.5,832.1,432.5z M807.6,422l0-1.6h-2v11.8h2.1v-7.4c0-1.6,1.1-2.8,2.9-2.8 c1.6,0,2.4,1.1,2.4,2.4v7.8h2.1v-7.4c0-1.6,1.1-2.8,2.9-2.8c1.7,0,2.4,1.1,2.4,2.4v7.8h2.1v-8.3c0-2.2-1.6-3.7-3.9-3.7 c-1.6,0-3,0.6-3.8,2c-0.6-1.3-1.9-2-3.6-2C809.5,420.2,808.4,420.9,807.6,422L807.6,422z M801.7,432.2v-16.9h-2.2v16.9H801.7z"></path> <path class="st14" d="M896.8,446.8l-3.5,9.4h0l-3.5-9.4h-2.3l4.7,12l0,0.1c-0.5,1.7-1.3,2.2-2.4,2.2c-0.4,0-0.7-0.1-1-0.2v1.7 c0.4,0.1,0.8,0.2,1.4,0.2c1.8,0,2.8-0.8,3.8-3.4l5-12.7H896.8z M879.1,448.5h2.4v7c0,2.1,1,3.3,3.3,3.3c0.7,0,1.2-0.1,1.7-0.2V457 c-0.2,0-0.5,0.1-0.9,0.1c-1.5,0-1.9-0.6-1.9-2v-6.5h2.8v-1.7h-2.8v-3.7h-2.1v3.7h-2.4V448.5z M876.9,458.6v-11.8h-2.1v11.8H876.9z M874.7,444h2.3v-2.3h-2.3V444z M871.1,458.6v-16.9H869v16.9H871.1z M860.2,457.1c-1.4,0-2.2-0.7-2.2-1.8c0-1.2,1-1.6,2.3-1.8 c1-0.1,2.2-0.2,3-0.2v0.7C863.3,455.7,862.1,457.1,860.2,457.1z M865.4,458.6v-8c0-2.6-1.8-4-4.6-4c-2.2,0-3.9,0.9-4.5,2.7l1.7,0.8 c0.4-1.1,1.2-1.8,2.7-1.8c1.8,0,2.6,1.1,2.6,2.3v1.1c-1.9,0.1-3.9,0.2-5.1,0.6c-1.5,0.5-2.3,1.5-2.3,3.1c0,2.1,1.5,3.6,3.8,3.6 c1.7,0,2.9-0.8,3.6-2h0l0,1.7H865.4z M852.8,446.8h-2.1v7c0,1.8-1.3,3.2-3.2,3.2c-1.8,0-2.7-1.2-2.7-2.8v-7.5h-2.1v7.9 c0,2.5,1.6,4.1,4.2,4.1c1.7,0,3.1-0.8,3.8-2h0l0,1.7h2V446.8z M826.1,450.2c0-3.6,1.8-6.8,5.6-6.8c3.9,0,5.7,3.3,5.7,6.8 c0,3.6-1.8,6.8-5.6,6.8C827.9,457,826.1,453.7,826.1,450.2z M835.4,461.9h2.7l-2.4-3.9c2.6-1.5,4-4.4,4-7.8c0-4.9-2.8-8.7-7.9-8.7 c-5.1,0-7.9,3.9-7.9,8.7c0,4.9,2.8,8.7,7.9,8.7c0.6,0,1.2-0.1,1.8-0.2L835.4,461.9z M805.1,458.6h2.1v-7c0-1.8,1.3-3.2,3.2-3.2 c1.8,0,2.7,1.2,2.7,2.8v7.5h2.1v-7.9c0-2.5-1.6-4.1-4.2-4.1c-1.8,0-3.1,0.8-3.8,2h0l0-1.7h-2V458.6z M801.4,458.6v-11.8h-2.1v11.8 H801.4z M799.2,444h2.3v-2.3h-2.3V444z"></path> <path class="st15" d="M848.5,139.8c4.1,0,6.7,4.3,6.7,11c0,2.5-0.5,5.3-1.4,7.2c-1,2.2-3.1,3.6-5.3,3.6c-2.2,0-4.3-1.5-5.3-3.6 c-0.9-2-1.4-4.7-1.4-7.3C841.9,144.2,844.5,139.8,848.5,139.8z M848.5,133.1c-3.8,0-7.4,1.3-10,3.7c-3.3,3-5,7.8-5,13.9 c0,10.9,5.8,17.6,15.1,17.6c9.2,0,15.1-6.8,15.1-17.3c0-6.5-1.7-11.1-5-14.2C855.9,134.4,852.5,133.1,848.5,133.1z M811.1,153.3 h2.5c3,0,4.1,0.2,5.3,0.7c1.3,0.6,2.1,1.8,2.1,3.2c0,2.7-2.5,4.5-6.2,4.5c-4.2,0-6.7-2.2-6.8-5.9h-8.5c0,8.1,5.3,12.5,14.9,12.5 c4.5,0,7.9-0.9,10.7-2.8c3-2,4.8-5.4,4.8-8.8c0-3.4-1.7-5.7-5.3-7.4c2.6-1.4,4-3.7,4-6.7c0-5.8-5.5-9.6-13.8-9.6 c-4.7,0-8.4,1.2-11.1,3.7c-2.2,2-3.2,4.1-3.7,8h8.5c0.5-3.5,2.5-5.3,6-5.3c3.1,0,5.3,1.6,5.3,4c0,1.2-0.7,2.4-1.8,3 c-1,0.6-1.5,0.6-4.4,0.6h-2.3V153.3z"></path> <rect x="867.9" y="152.1" class="st15" width="28" height="4.5"></rect> <path class="st15" d="M1005.6,149.6c2.7,0,4.1,2.5,4.1,7.1c0,4.4-1.5,6.9-4.1,6.9c-2.7,0-4.1-2.5-4.1-7S1002.9,149.6,1005.6,149.6z M1005.6,145.3c-5.9,0-9.8,4.5-9.8,11.3c0,6.9,3.9,11.3,9.8,11.3c5.9,0,9.8-4.5,9.8-11.2C1015.4,149.7,1011.6,145.3,1005.6,145.3z M996.8,134.3l-15.8,33.3h5.5l15.8-33.3H996.8z M977.9,137.9c2.7,0,4.2,2.5,4.2,7.1c0,4.4-1.5,6.9-4.1,6.9c-2.7,0-4.2-2.5-4.2-7 C973.8,140.4,975.2,137.9,977.9,137.9z M977.9,133.6c-5.9,0-9.8,4.5-9.8,11.3c0,6.9,3.9,11.3,9.9,11.3c5.9,0,9.8-4.5,9.8-11.2 C987.8,138,983.9,133.6,977.9,133.6z M962.1,133.9h-23.5l-3.5,19.6h8.2c1.6-2.2,3.6-3.2,6.4-3.2c3.8,0,6.5,2.3,6.5,5.7 c0,3.4-2.8,5.7-6.8,5.7c-3.4,0-5.6-1.5-6.1-4.1h-8.7c0.4,6.7,6,10.8,15,10.8c9.2,0,15.1-5,15.1-12.6c0-7-5.2-12-12.6-12 c-3.2,0-5.6,0.7-8.4,2.3l0.9-5.5h17.5V133.9z M901.9,133.9v6.7h19c-7.9,7.7-12.1,15.1-15.2,27h9.7c1.6-9.7,6.6-19.2,14.5-27.5v-6.1 H901.9z"></path> <path class="st15" d="M635.1,322.6c6,0,9.3-3,9.3-7.2c0-4.7-3.6-6-7.7-7c-3.3-0.7-5-1.1-5-2.9c0-1.4,1.2-2.5,3.5-2.5 c2.3,0,4.4,0.9,6.3,2.4l2.4-3.5c-2.1-1.8-4.9-2.9-8.7-2.9c-5.7,0-8.8,3.1-8.8,7c0,4.5,3.6,6,7.5,6.9c3.3,0.7,5.2,1.2,5.2,3 c0,1.7-1.3,2.7-4,2.7c-2.7,0-5-1-6.8-2.7l-2.8,3.4C628,321.4,630.9,322.6,635.1,322.6z M614.6,322.6c6,0,9.3-3,9.3-7.2 c0-4.7-3.6-6-7.7-7c-3.3-0.7-5-1.1-5-2.9c0-1.4,1.2-2.5,3.5-2.5c2.3,0,4.4,0.9,6.3,2.4l2.4-3.5c-2.1-1.8-4.9-2.9-8.7-2.9 c-5.7,0-8.8,3.1-8.8,7c0,4.5,3.6,6,7.5,6.9c3.3,0.7,5.2,1.2,5.2,3c0,1.7-1.3,2.7-4,2.7c-2.7,0-5-1-6.8-2.7l-2.8,3.4 C607.4,321.4,610.4,322.6,614.6,322.6z M603.1,322.3v-4.1h-11v-5.5h9.4v-4h-9.4v-5.3h10.8v-4.1h-16v22.9H603.1z M577.1,299.4v14.8 H577l-9.3-14.8h-5.8v22.9h5.1v-15.4h0.1l10,15.4h5.1v-22.9H577.1z M557.2,322.3v-22.9H552v22.9H557.2z M539.3,322.6 c6,0,9.3-3,9.3-7.2c0-4.7-3.6-6-7.7-7c-3.3-0.7-5-1.1-5-2.9c0-1.4,1.2-2.5,3.5-2.5c2.3,0,4.4,0.9,6.3,2.4l2.4-3.5 c-2.1-1.8-4.9-2.9-8.7-2.9c-5.7,0-8.8,3.1-8.8,7c0,4.5,3.6,6,7.5,6.9c3.3,0.7,5.2,1.2,5.2,3c0,1.7-1.3,2.7-4,2.7 c-2.7,0-5-1-6.8-2.7l-2.8,3.4C532.1,321.4,535,322.6,539.3,322.6z M521.7,314.2c0,2.7-1.8,4.4-4.7,4.4c-2.8,0-4.7-1.8-4.7-4.4 v-14.8H507v14.8c0,5.5,4.1,8.4,9.8,8.4c6.3,0,10-3,10-8.4v-14.8h-5.1V314.2z M490.1,318.3v-5.6h5.5c1.6,0,2.8,0.9,2.8,2.8 c0,1.9-1.3,2.8-2.8,2.8H490.1z M495.2,303.4c1.5,0,2.8,0.9,2.8,2.8c0,1.9-1.3,2.8-2.8,2.8h-5v-5.5H495.2z M499.3,310.5 c2.4-0.8,3.9-2.7,3.9-5.3c0-3.6-2.9-5.9-7.4-5.9h-10.9v22.9h10.7c4.6,0,8.1-2.2,8.1-6.3C503.7,313.1,501.9,311.2,499.3,310.5 L499.3,310.5z"></path> <path class="st15" d="M625.9,358.4c6,0,9.3-3,9.3-7.2c0-4.7-3.6-6-7.7-7c-3.3-0.7-5-1.1-5-2.9c0-1.4,1.2-2.5,3.5-2.5 c2.3,0,4.4,0.9,6.3,2.4l2.4-3.5c-2.1-1.8-4.9-2.9-8.7-2.9c-5.7,0-8.8,3.1-8.8,7c0,4.5,3.6,6,7.5,6.9c3.3,0.7,5.2,1.2,5.2,3 c0,1.7-1.3,2.7-4,2.7c-2.7,0-5-1-6.8-2.7l-2.8,3.4C618.7,357.2,621.6,358.4,625.9,358.4z M607.6,358.1v-18.8h7.3v-4.1H595v4.1h7.3 v18.8H607.6z M581.1,358.1H597V354h-10.7v-18.8h-5.2V358.1z M571.3,350c0,2.7-1.8,4.4-4.7,4.4c-2.8,0-4.7-1.8-4.7-4.4v-14.8h-5.3 V350c0,5.5,4.1,8.4,9.8,8.4c6.3,0,10-3,10-8.4v-14.8h-5.1V350z M544.1,358.4c6,0,9.3-3,9.3-7.2c0-4.7-3.6-6-7.7-7 c-3.3-0.7-5-1.1-5-2.9c0-1.4,1.2-2.5,3.5-2.5c2.3,0,4.4,0.9,6.3,2.4l2.4-3.5c-2.1-1.8-4.9-2.9-8.7-2.9c-5.7,0-8.8,3.1-8.8,7 c0,4.5,3.6,6,7.5,6.9c3.3,0.7,5.2,1.2,5.2,3c0,1.7-1.3,2.7-4,2.7c-2.7,0-5-1-6.8-2.7l-2.8,3.4C536.9,357.2,539.8,358.4,544.1,358.4 z M532.6,358.1V354h-11v-5.5h9.4v-4h-9.4v-5.3h10.8v-4.1h-16v22.9H532.6z M499.4,339.2h4.9c1.6,0,3,0.9,3,3c0,2-1.4,3-3,3h-4.9 V339.2z M507.5,358.1h5.8l-4.8-10.1c2.5-1,4.2-3.1,4.2-6.1c0-4.3-3.2-6.7-7.7-6.7h-10.7v22.9h5.3v-8.9h4.1L507.5,358.1z"></path> <path class="st15" d="M861.3,365.1h-23.5l-3.5,19.6h8.2c1.6-2.2,3.6-3.2,6.4-3.2c3.8,0,6.5,2.3,6.5,5.7c0,3.4-2.8,5.7-6.8,5.7 c-3.4,0-5.6-1.5-6.1-4.1h-8.7c0.4,6.7,6,10.8,15,10.8c9.2,0,15.1-5,15.1-12.6c0-7-5.2-12-12.6-12c-3.2,0-5.6,0.7-8.4,2.3l0.9-5.5 h17.5V365.1z M828,398.8v-6.9h-17c0.7-1.3,1.5-2,5.1-4.1l2.1-1.2c5.1-3.1,6.2-3.9,8-6c1.5-1.6,2.2-3.7,2.2-5.9 c0-6.2-5.3-10.2-13.3-10.2c-5.1,0-9.2,1.6-11.8,4.5c-1.8,2.1-2.4,4.1-2.8,8.1h8.7c0.1-1.8,0.2-2.7,0.7-3.5c0.8-1.5,2.6-2.4,4.7-2.4 c2.7,0,4.6,1.6,4.6,3.8c0,1.5-0.7,2.7-2.2,3.7c-1.1,0.8-1.1,0.8-4.7,2.9l-3,1.7c-7.1,4-8.7,6.9-8.9,15.7H828z"></path> <rect x="867.9" y="383.3" class="st15" width="28" height="4.5"></rect> <path class="st15" d="M1005.6,380.8c2.7,0,4.1,2.5,4.1,7.1c0,4.4-1.5,6.9-4.1,6.9c-2.7,0-4.1-2.5-4.1-7S1002.9,380.8,1005.6,380.8z M1005.6,376.4c-5.9,0-9.8,4.5-9.8,11.3c0,6.9,3.9,11.3,9.8,11.3c5.9,0,9.8-4.5,9.8-11.2C1015.4,380.9,1011.6,376.4,1005.6,376.4z M996.8,365.5l-15.8,33.3h5.5l15.8-33.3H996.8z M977.9,369.1c2.7,0,4.2,2.5,4.2,7.1c0,4.4-1.5,6.9-4.1,6.9c-2.7,0-4.2-2.5-4.2-7 C973.8,371.6,975.2,369.1,977.9,369.1z M977.9,364.7c-5.9,0-9.8,4.5-9.8,11.3c0,6.9,3.9,11.3,9.9,11.3c5.9,0,9.8-4.5,9.8-11.2 C987.8,369.2,983.9,364.7,977.9,364.7z M962.1,365.1h-23.5l-3.5,19.6h8.2c1.6-2.2,3.6-3.2,6.4-3.2c3.8,0,6.5,2.3,6.5,5.7 c0,3.4-2.8,5.7-6.8,5.7c-3.4,0-5.6-1.5-6.1-4.1h-8.7c0.4,6.7,6,10.8,15,10.8c9.2,0,15.1-5,15.1-12.6c0-7-5.2-12-12.6-12 c-3.2,0-5.6,0.7-8.4,2.3l0.9-5.5h17.5V365.1z M901.9,365.1v6.7h19c-7.9,7.7-12.1,15.1-15.2,27h9.7c1.6-9.7,6.6-19.2,14.5-27.5v-6.1 H901.9z"></path> <polygon class="st16" points="591,175.1 593.2,161.4 598.5,162.3 598.9,159.3 584.5,157 584,160 589.3,160.8 587.1,174.5 "></polygon> <rect x="593.7" y="166.8" transform="matrix(0.2303 -0.9731 0.9731 0.2303 299.2403 715.8641)" class="st16" width="16.9" height="3.9"></rect> <polygon class="st16" points="622.9,166.1 615.4,176.4 615.3,176.4 615.5,163.6 610.6,162 605.2,178 608.7,179.2 612.3,168.7 612.3,168.7 612.2,180.4 615.3,181.4 622.3,172 622.3,172 618.8,182.6 622.4,183.8 627.8,167.8 "></polygon> <polygon class="st16" points="636,190.2 637.3,187.5 629.9,184.1 631.7,180.4 637.9,183.4 639.2,180.7 632.9,177.7 634.6,174.2 641.8,177.6 643.1,174.9 632.4,169.8 625.2,185.1 "></polygon> <rect x="642.7" y="182.5" transform="matrix(0.4917 -0.8708 0.8708 0.4917 166.1805 655.2032)" class="st16" width="3" height="5.6"></rect> <polygon class="st16" points="650.1,198.8 657.7,187.1 662.2,190.1 663.8,187.5 651.6,179.6 649.9,182.1 654.4,185 646.8,196.6 "></polygon> <path class="st16" d="M663.7,198.1c2-2.4,4.7-3.5,7-1.6c2.3,1.9,1.8,4.8-0.2,7.2c-2,2.4-4.7,3.5-7,1.6 C661.2,203.4,661.7,200.5,663.7,198.1z M660.6,195.6c-3.1,3.8-3.2,8.6,1,12c4.2,3.5,8.9,2.4,12-1.5c3.1-3.8,3.2-8.6-1-12 C668.4,190.7,663.7,191.8,660.6,195.6z"></path> <rect x="676" y="207.3" transform="matrix(0.6956 -0.7185 0.7185 0.6956 55.301 550.7085)" class="st16" width="3" height="5.6"></rect> <polygon class="st16" points="697,218.8 685.2,223.8 685.2,223.7 691.9,212.9 688.5,208.9 675.7,219.9 678.1,222.7 686.6,215.5 686.6,215.5 680.5,225.5 682.6,228 693.5,223.5 693.5,223.5 685,230.8 687.5,233.7 700.3,222.7 "></polygon> <path class="st16" d="M697.3,236.5l6.9-1.8l0,0l-4.4,5.6L697.3,236.5z M695.6,245.9l2.2,3.4l10.7-14.5l-2.6-3.9l-17.5,4.1l2.1,3.3 l3.8-1l3.6,5.5L695.6,245.9z"></path> <path class="st16" d="M712.7,247.8l1.6,3.2c0.6,1.1,0.4,2.3-0.9,3c-1.3,0.7-2.4,0.1-3-1l-1.6-3.2L712.7,247.8z M703,259.4l1.9,3.8 l5-6.6c1.5,1.3,3.5,1.7,5.4,0.7c2.8-1.4,3.3-4.4,1.8-7.3l-3.6-7l-15,7.7l1.8,3.4l5.8-3l1.4,2.7L703,259.4z"></path> <polygon class="st16" points="709.3,274.4 710.9,278.4 717.1,270.8 726.6,272.1 725.1,268.2 717.3,267.2 716.4,265 722.9,262.5 721.5,258.9 705.7,265 707.1,268.6 713.7,266.1 714.5,268.2 "></polygon> <polygon class="st16" points="714.6,291.8 717.5,291 715.3,283.2 719.2,282.1 721,288.8 723.9,288 722.1,281.3 725.8,280.3 727.9,288 730.8,287.2 727.7,275.8 711.4,280.3 "></polygon> <polygon class="st16" points="716.5,302.1 730.1,299.8 731,305.1 734,304.5 731.5,290.1 728.6,290.7 729.5,295.9 715.8,298.3 "></polygon> <polygon class="st16" points="420.8,271.8 418,270.9 415.4,278.6 411.6,277.3 413.8,270.7 411,269.8 408.8,276.3 405.1,275.1 407.6,267.5 404.8,266.6 401,277.8 417,283.2 "></polygon> <polygon class="st16" points="410.9,252.4 420.8,257 420.8,257 408,258.7 406.3,262.6 421.6,269.6 423.2,266.2 412.9,261.5 412.9,261.4 426.3,259.5 427.8,256 412.5,249 "></polygon> <path class="st16" d="M425.3,241.8l2.5,1.5l1.8-3l0.2,0.1c1.9,1.1,2.1,3.1,1.1,4.9c-1.6,2.6-4.4,2.6-7.2,0.9 c-2.8-1.7-4.1-4.4-2.5-7c0.9-1.5,2.3-2.2,4.1-2.3l-0.2-3.3c-2.6,0.2-4.9,1.5-6.5,4.2c-2.9,4.8-1.1,9.3,3.1,11.9 c4,2.5,8.7,2.2,11.3-2.1c1.2-2,1.2-3.6,0.7-4.9l0,0l1.5,0.8l1.8-2.9l-8-4.9L425.3,241.8z"></path> <path class="st16" d="M436.4,230.3l-3.9-5.9l0,0l6.7,2.3L436.4,230.3z M445.8,229l2.5-3.2l-17.1-5.5l-2.9,3.7l9.6,15.2l2.4-3.1 l-2.2-3.3l4-5.2L445.8,229z"></path> <path class="st16" d="M447.7,213l2.1,2l2.5-2.5l0.2,0.2c1.6,1.5,1.4,3.5-0.1,5c-2.1,2.2-4.8,1.6-7.2-0.7c-2.3-2.3-3.1-5.2-0.9-7.4 c1.3-1.3,2.7-1.6,4.5-1.3l0.5-3.3c-2.6-0.4-5.1,0.3-7.3,2.6c-3.9,4-3.2,8.8,0.4,12.3c3.4,3.3,8,4.1,11.5,0.5 c1.6-1.7,1.9-3.3,1.8-4.7l0,0l1.3,1.1l2.4-2.4l-6.7-6.5L447.7,213z"></path> <polygon class="st16" points="470.8,204.7 468.9,202.4 462.7,207.6 460.1,204.5 465.4,200 463.5,197.8 458.2,202.2 455.7,199.2 461.8,194.1 459.9,191.8 450.8,199.4 461.7,212.3 "></polygon> <polygon class="st16" points="474.1,181.9 477.6,194.2 477.6,194.2 467.6,186.2 463.3,189.1 472.6,203.2 475.7,201.1 469.6,191.8 469.6,191.8 478.8,199.1 481.5,197.3 478.4,186 478.4,185.9 484.5,195.3 487.7,193.2 478.4,179 "></polygon> <polygon class="st16" points="501.2,186.4 499.8,183.7 492.6,187.4 490.8,183.8 496.9,180.7 495.6,178 489.4,181.1 487.7,177.6 494.8,174.1 493.4,171.4 482.9,176.7 490.5,191.8 "></polygon> <polygon class="st16" points="507.7,165.7 511.6,175.9 511.6,175.9 501.3,168.1 497.3,169.6 503.3,185.4 506.8,184.1 502.8,173.5 502.8,173.5 513.7,181.5 517.2,180.1 511.3,164.3 "></polygon> <polygon class="st16" points="528.1,177.2 524.6,163.8 529.8,162.5 529.1,159.5 514.9,163.2 515.7,166.1 520.9,164.8 524.3,178.2 "></polygon> <path class="st16" d="M405.9,370.1l5.1-1.5l1,3.3c0.4,1.4-0.1,2.8-1.8,3.3c-1.8,0.5-2.9-0.4-3.3-1.8L405.9,370.1z M412.7,364.1 l-16.2,4.7l1.1,3.7l5.4-1.6l1,3.6c1,3.4,3.8,5.4,7.2,4.4c3.4-1,4.6-4.2,3.6-7.5L412.7,364.1z"></path> <path class="st16" d="M415.9,383.8l1.3,3.3c0.5,1.1,0.2,2.3-1.2,2.9c-1.4,0.6-2.4-0.1-2.9-1.2l-1.3-3.3L415.9,383.8z M405.2,394.5 l1.6,3.9l5.6-6.1c1.4,1.4,3.3,2,5.4,1.2c2.9-1.2,3.7-4,2.4-7.1l-3-7.3l-15.7,6.3l1.4,3.6l6.1-2.5l1.1,2.8L405.2,394.5z"></path> <path class="st16" d="M417.2,400.2c2.8-1.5,5.7-1.5,7.1,1.2c1.4,2.6-0.2,5.1-3,6.6s-5.7,1.5-7.1-1.2 C412.8,404.2,414.4,401.7,417.2,400.2z M415.3,396.7c-4.4,2.3-6.3,6.7-3.7,11.4c2.6,4.8,7.3,5.6,11.6,3.3c4.4-2.3,6.3-6.7,3.7-11.4 C424.3,395.2,419.6,394.4,415.3,396.7z"></path> <path class="st16" d="M422.5,420.3l9-6.2l1.2,1.7c1.8,2.7,1.5,5.3-1.6,7.4c-3,2.1-5.5,1.6-7.4-1.1L422.5,420.3z M417.8,418.8 l3.6,5.3c3.2,4.7,7.9,5.1,11.9,2.3c3.7-2.5,5.4-6.9,2-11.9l-3.6-5.2L417.8,418.8z"></path> <path class="st16" d="M440.3,438.5c-1.5,1.3-3.3,1.1-4.7-0.5c-1.4-1.6-1.2-3.5,0.2-4.7l8.3-7.1l-2.5-2.9l-8.3,7.1 c-3.1,2.7-2.7,6.3,0,9.5c3,3.5,6.5,4.1,9.5,1.5l8.3-7.1l-2.5-2.9L440.3,438.5z"></path> <path class="st16" d="M446.8,453.8c2.3,2.2,4.8,2.7,7.5,2l-0.8-3.2c-1.7,0.5-3.2,0.3-4.5-0.9c-2.3-2.2-1.5-5,0.6-7.3 c2.1-2.3,4.9-3.2,7.2-1.1c1.3,1.2,1.6,2.7,1.1,4.4l3.3,0.6c0.5-2.7-0.2-5.2-2.5-7.3c-3.9-3.6-8.6-2.9-12,0.7 C443.2,445.5,442.9,450.2,446.8,453.8z"></path> <polygon class="st16" points="460.9,465.3 469.3,454.3 473.6,457.5 475.4,455.1 463.8,446.2 462,448.7 466.2,451.9 457.8,462.9 "></polygon> <rect x="465.6" y="462.3" transform="matrix(0.5509 -0.8346 0.8346 0.5509 -174.522 604.1129)" class="st16" width="16.9" height="3.9"></rect> <polygon class="st16" points="492.2,465.2 482.6,474.1 482.5,474.1 485,461.2 481.5,459.2 478.4,476.9 482.3,479 495.7,467.1 "></polygon> <rect x="486.9" y="474.2" transform="matrix(0.4209 -0.9071 0.9071 0.4209 -145.0405 724.9855)" class="st16" width="16.9" height="3.9"></rect> <polygon class="st16" points="504.9,489.2 509.8,476.3 514.9,478.2 515.9,475.3 502.3,470.1 501.2,473 506.2,474.9 501.3,487.9 "></polygon> <polygon class="st16" points="527.4,478.5 522.1,484 522.1,483.9 520.3,476.6 516.2,475.4 519.2,487 517.5,493.3 521.2,494.3 523,487.9 531.4,479.6 "></polygon> <path class="st16" d="M643.5,470.8c-1.6-2.7-1.6-5.7,1-7.2c2.6-1.5,5.1,0,6.7,2.8s1.6,5.7-1,7.2 C647.6,475.1,645.1,473.6,643.5,470.8z M655.4,477.6l3.8-2.2l-4.1-2.3c1.5-2.6,1.3-5.7-0.4-8.6c-2.4-4.3-6.8-6.1-11.5-3.4 c-4.8,2.7-5.4,7.4-3,11.7c2.4,4.3,6.8,6.1,11.5,3.4c0.3-0.2,0.5-0.3,0.7-0.5L655.4,477.6z"></path> <path class="st16" d="M667.2,458.6c1.2,1.6,0.8,3.4-0.9,4.7c-1.7,1.2-3.6,1-4.7-0.6l-6.4-8.8l-3.1,2.3l6.4,8.8 c2.4,3.3,6.1,3.2,9.5,0.8c3.8-2.7,4.6-6.1,2.3-9.3l-6.4-8.8l-3.1,2.2L667.2,458.6z"></path> <path class="st16" d="M676,450.5l-2.8-6.5l0,0l6.2,3.5L676,450.5z M685.5,450.9l3-2.7l-15.9-8.4l-3.5,3.1l6.7,16.7l2.9-2.6 l-1.5-3.6l4.9-4.4L685.5,450.9z"></path> <polygon class="st16" points="690.5,445.9 698.5,437.3 696.2,435.2 690.9,441 680.7,431.7 678.1,434.6 "></polygon> <rect x="692.9" y="419.7" transform="matrix(0.6248 -0.7808 0.7808 0.6248 -73.5589 703.2135)" class="st16" width="3.9" height="16.9"></rect> <polygon class="st16" points="709.9,421.9 698.5,414.1 701.6,409.6 699.1,407.9 690.8,419.9 693.3,421.7 696.3,417.2 707.7,425.1 "></polygon> <polygon class="st16" points="704.9,397.5 708.9,404 708.9,404 701.3,404 699.2,407.7 711.1,407.5 716.9,410.7 718.8,407.3 713,404.1 706.9,393.9 "></polygon> </g> </svg> 