<?xml version="1.0" encoding="utf-8"?>
<!-- Generator: Adobe Illustrator 23.0.3, SVG Export Plug-In . SVG Version: 6.00 Build 0)  -->
<svg version="1.1" id="Laag_3" xmlns="http://www.w3.org/2000/svg" xmlns:xlink="http://www.w3.org/1999/xlink" x="0px" y="0px"
	 width="123.8px" height="26.7px" viewBox="0 0 123.8 26.7" style="enable-background:new 0 0 123.8 26.7;" xml:space="preserve">
<g>
	<path d="M7,26.4V18L0,2h5.7l4.1,10.4h0.3L14,2h5.5l-7,16v8.4H7z"/>
	<path d="M21.3,25.9c-1.1-0.5-1.7-1.4-2-2.6c-0.3-1.2-0.4-3.2-0.4-6c0-2.7,0.1-4.7,0.4-6c0.3-1.2,1-2.1,2-2.6
		C22.4,8.3,24.1,8,26.5,8s4.1,0.3,5.2,0.8c1,0.5,1.7,1.4,2,2.6c0.3,1.2,0.4,3.2,0.4,6c0,2.7-0.1,4.7-0.4,5.9c-0.3,1.2-1,2.1-2,2.6
		c-1,0.5-2.8,0.8-5.2,0.8S22.4,26.4,21.3,25.9z M28.3,22.3c0.3-0.2,0.5-0.6,0.6-1.3c0.1-0.6,0.1-1.9,0.1-3.7s0-3-0.1-3.7
		c-0.1-0.7-0.3-1.1-0.6-1.3c-0.3-0.2-0.9-0.3-1.7-0.3s-1.4,0.1-1.8,0.3c-0.3,0.2-0.5,0.6-0.6,1.3c-0.1,0.6-0.1,1.9-0.1,3.7
		c0,1.8,0,3.1,0.1,3.7s0.3,1,0.6,1.3c0.3,0.2,0.9,0.3,1.8,0.3S28,22.5,28.3,22.3z"/>
	<path d="M47.2,24.2h-0.3c-0.8,1.6-2.3,2.5-4.7,2.5c-1.4,0-2.4-0.2-3.1-0.7c-0.7-0.5-1.2-1.2-1.4-2.2c-0.2-0.9-0.4-2.3-0.4-3.9V8.3
		h5.2V18c0,1.4,0,2.4,0.1,3c0.1,0.6,0.3,0.9,0.6,1.1c0.3,0.2,0.8,0.2,1.5,0.2c0.7,0,1.2-0.1,1.5-0.4c0.3-0.2,0.5-0.7,0.6-1.3
		C47,20,47,19,47,17.7V8.3h5.2v18.1h-4.9L47.2,24.2z"/>
	<path d="M56.1,8.3H61l0.1,3.1h0.3c0.4-1.3,1-2.1,1.8-2.6C64,8.2,65.1,8,66.4,8v5c-1.3,0-2.3,0.2-3.1,0.5c-0.7,0.4-1.3,1-1.6,1.8
		c-0.3,0.9-0.5,2.1-0.5,3.6v7.5h-5.2V8.3z"/>
	<path d="M69,26.1v-4.3c2.9,0.2,5,0.4,6.3,0.4c1,0,1.7,0,2.3-0.1c0.5-0.1,0.9-0.3,1.2-0.5c0.2-0.2,0.3-0.5,0.4-0.8
		c0.1-0.3,0.1-0.7,0.1-1.3c0-0.8,0-1.3-0.1-1.6c-0.1-0.3-0.3-0.6-0.6-0.7c-0.3-0.1-0.8-0.3-1.5-0.4L73,16.1c-1.8-0.3-3-1-3.7-2.1
		c-0.6-1.1-1-2.8-1-4.9c0-2.1,0.3-3.6,1-4.7c0.7-1.1,1.6-1.8,2.8-2.2s2.7-0.5,4.5-0.5c2.3,0,4.6,0.2,6.9,0.7v4.3
		c-2.1-0.3-4-0.4-5.7-0.4c-1.8,0-2.9,0.2-3.4,0.5c-0.3,0.2-0.5,0.4-0.5,0.7C74,7.7,74,8.2,74,8.8c0,0.7,0,1.2,0.1,1.5
		c0.1,0.3,0.2,0.5,0.5,0.6s0.7,0.2,1.3,0.3l4.2,0.6c0.9,0.1,1.7,0.4,2.4,0.7c0.6,0.3,1.1,0.9,1.5,1.7c0.5,1,0.7,2.5,0.7,4.5
		c0,2.3-0.3,4-1,5.2c-0.6,1.2-1.5,1.9-2.6,2.3c-1.1,0.4-2.5,0.5-4.3,0.5C73.9,26.7,71.3,26.5,69,26.1z"/>
	<path d="M88,4.4V0h5.3v4.4H88z M88.1,26.4V8.3h5.2v18.1H88.1z"/>
	<path d="M98.6,26.4v-14h-2.8V8.3h2.8V3h5.2v5.3h3.4v4.1h-3.4v14H98.6z"/>
	<path d="M123.8,18.8h-9.6c0,1.3,0.1,2.2,0.2,2.6c0.1,0.5,0.5,0.8,1,1c0.5,0.2,1.5,0.2,2.8,0.2c1,0,2.7-0.1,4.9-0.3v3.8
		c-0.7,0.2-1.6,0.3-2.8,0.4s-2.3,0.2-3.4,0.2c-2.4,0-4.2-0.3-5.4-0.9s-1.8-1.5-2.1-2.8c-0.3-1.2-0.5-3.1-0.5-5.6
		c0-2.5,0.2-4.3,0.5-5.6c0.3-1.3,1-2.2,2.1-2.8c1.1-0.6,2.7-1,5-1c2.3,0,3.9,0.3,4.9,0.9c1,0.6,1.6,1.5,1.8,2.7
		c0.2,1.2,0.4,3.1,0.4,5.8V18.8z M115.1,12.2c-0.3,0.2-0.5,0.5-0.6,1c-0.1,0.5-0.2,1.4-0.2,2.5h4.7c0-1.2-0.1-2.1-0.2-2.6
		c-0.1-0.5-0.3-0.8-0.6-1c-0.3-0.2-0.8-0.2-1.5-0.2C115.9,11.9,115.4,12,115.1,12.2z"/>
</g>
</svg>
