<?xml version="1.0" encoding="UTF-8"?>
<svg id="Laag_1" xmlns="http://www.w3.org/2000/svg" xmlns:x="http://ns.adobe.com/Extensibility/1.0/" version="1.1" viewBox="0 0 270 54.3">
  <!-- Generator: Adobe Illustrator 29.4.0, SVG Export Plug-In . SVG Version: 2.1.0 Build 152)  -->
  <defs>
    <style>
      .st0 {
        isolation: isolate;
      }

      .st1 {
        fill: #868685;
      }

      .st2 {
        fill: #bfb809;
        fill-rule: evenodd;
      }
    </style>
  </defs>
  <path class="st2" d="M129.375,12.674V2.626s1.338-.63,2.247-.626c.894.005,2.205.626,2.205.626v11.341l-4.452-1.292h0Z"/>
  <path class="st1" d="M8.37,20.241c-.583,0-1.097.183-1.53.495-.077-1.193-.204-2.38-.407-3.511.876-.551,1.99-1.001,3.176-1.001,2.134,0,3.899.825,4.621,2.586.905-1.115,2.76-2.586,5.403-2.586,4.101,0,5.708,2.339,5.708,7.531v14.419h-4.455v-13.436c0-3.507-.582-4.497-2.493-4.497-1.924,0-3.076,1.613-3.076,3.659v14.274h-4.454v-13.436c0-3.471-.584-4.497-2.493-4.497ZM.4,16.625h4.238c.474,2.231.615,5.548.657,7.559v13.99H.839v-13.836c0-6.325-.439-7.713-.439-7.713ZM41.56,27.254c0-.382-.011-.76-.034-1.132l-.075-9.498h4.455v15.258c0,.467.025,2.411.502,2.95l.154.221v3.12h-4.274s-.186-.423-.327-.898c-.14-.47-.29-1.115.013-1.661-.426.612-.843,1.079-1.312,1.486-.913.837-2.198,1.399-3.812,1.437-5.546.151-8.374-5.245-8.374-11.394,0-5.786,2.72-11.144,8.265-10.993,1.135.033,2.212.4,3.087.907l.03,4.145c-.631-.657-1.465-1.062-2.547-1.108-3.098-.102-4.308,3.268-4.308,7.122,0,4.22,1.213,7.443,4.31,7.341,3.286-.068,4.285-3.521,4.248-7.303h0ZM55.062,16.625v18.538c0,8.261-.831,10.373-.831,10.373h-4.495s.871-2.936.871-6.802v-22.11l4.454-1.458v1.458h.001ZM68.127,16.168c5.227.318,8.047,4.981,8.047,10.976,0,6.507-3.177,11.394-9.098,11.394-5.718,0-8.515-5.09-8.515-11.503,0-5.625,2.825-10.266,7.931-10.827v3.982c-2.257.532-3.367,3.27-3.367,7.064,0,4.173,1.354,7.305,4.206,7.305,3.001,0,4.352-3.064,4.352-7.341,0-3.719-1.214-6.527-3.556-7.038v-4.012ZM86.866,20.86c-.489-.029-.941.104-1.336.356-.069-1.353-.192-2.71-.397-3.941,1.091-.769,2.402-1.146,3.879-1.037v5.077s-.486-.182-.823-.265c-.34-.084-.81-.173-1.323-.191h0ZM83.331,16.625l.292,1.754c.246,2.018.317,4.342.335,5.884-.009.121-.013.243-.013.366v13.545h-4.454v-13.654c0-6.227-.422-7.895-.422-7.895h4.263,0ZM108.359,20.241c-.59,0-1.11.187-1.547.508-.075-1.194-.198-2.384-.398-3.518.878-.553,1.995-1.007,3.184-1.007,2.134,0,3.899.825,4.621,2.586.905-1.115,2.761-2.586,5.403-2.586,4.101,0,5.708,2.339,5.708,7.531v14.419h-4.455v-13.436c0-3.507-.582-4.497-2.493-4.497-1.924,0-3.076,1.613-3.076,3.659v14.274h-4.454v-13.436c0-3.471-.583-4.497-2.493-4.497ZM100.39,16.625h4.231c.635,3.069.659,8.1.658,9.063v.162l.006,12.325h-4.455v-13.836c0-6.325-.439-7.713-.439-7.713h0ZM143.534,35.053v3.12h-4.349s-.944-2.225-.944-7.531V9.189h4.454v21.855c0,.522.021,3.136.649,3.772,0,0,.19.237.19.237ZM163.88,28.66h-11.047c-.107-1.17-.021-2.499.132-3.616h6.249c.071-3.226-1.57-5.022-3.957-5.022-1.699,0-3.184,1.408-3.743,3.772-.081.342-.137.705-.176,1.086-.165,1.23-.263,2.75-.111,4.132.28,3.099,2.269,5.301,5.096,5.4,1.591.088,3.279-.163,4.748-.798l.041,4.206s-.665.246-1.526.427c-.854.18-2.039.347-3.354.291-6.225-.26-9.563-4.535-9.563-11.503,0-6.14,2.847-10.884,8.806-10.884,5.694,0,8.406,4.001,8.406,9.973v2.537h-.001ZM175.794,25.809c2.44,1.082,4.969,2.591,4.969,6.547,0,4.206-3.571,6.182-7.093,6.182-3.553,0-7.203-2.045-7.203-6.072v-.17l4.013-.73c.036,1.983,1.609,3.175,3.481,3.175,1.349,0,2.493-.711,2.493-2.275,0-1.676-1.649-2.473-2.937-3.066-3.276-1.508-6.722-2.695-6.722-7.212,0-3.618,2.791-5.521,5.779-5.842v3.726c-.866.214-1.506.832-1.506,1.86,0,1.744,1.599,2.514,2.946,3.112.568.252,1.174.497,1.78.766h0ZM174.209,16.327c3.011.254,5.862,2.096,5.862,5.423v.171l-3.824.692c-.058-1.34-.889-2.219-2.037-2.516v-3.77h0ZM194.621,34.107v3.736s-.63.136-1.261.237c-.634.102-1.43.203-2.078.203-4.544,0-6.145-1.571-6.145-5.567v-12.439h-2.733v-3.653h1.443c1.07,0,1.486-.182,1.656-1.593l.385-3.328h3.703v20.682c0,1.697.328,2.098,1.946,2.098,1.329,0,3.084-.378,3.084-.378v.002ZM191.225,16.625h3.396v3.653h-3.396v-3.653ZM205.774,16.161c5.308.251,8.173,4.94,8.173,10.983,0,6.507-3.177,11.394-9.098,11.394-5.718,0-8.515-5.09-8.515-11.503,0-5.579,2.779-10.189,7.805-10.812v3.999c-2.172.603-3.241,3.309-3.241,7.032,0,4.173,1.353,7.305,4.206,7.305,3.002,0,4.352-3.064,4.352-7.341,0-3.786-1.258-6.627-3.682-7.064v-3.992h0ZM225.159,20.241c-.724,0-1.352.226-1.865.604-.073-1.241-.193-2.475-.383-3.603.903-.551,2.093-1.018,3.487-1.018,4.236,0,6.073,2.396,6.073,7.531v14.419h-4.455v-13.436c0-3.442-.712-4.497-2.857-4.497ZM221.102,16.625l.297,1.697c.23,1.858.31,3.987.336,5.528-.012.138-.018.276-.018.415v13.909h-4.454v-13.763c-.036-6.124-.416-7.786-.416-7.786,0,0,4.255,0,4.255,0ZM252.817,28.66h-11.037c-.107-1.17-.021-2.499.132-3.616h6.238c.071-3.226-1.57-5.022-3.957-5.022-1.98,0-3.658,1.915-3.934,5.022-.139,1.094-.215,2.394-.119,3.616.15,3.276,2.182,5.649,5.119,5.751,1.591.088,3.279-.163,4.748-.798l.041,4.206s-.665.246-1.526.427c-.854.18-2.039.347-3.354.291-6.225-.26-9.563-4.535-9.563-11.503,0-6.14,2.847-10.884,8.806-10.884,5.694,0,8.406,4.001,8.406,9.973v2.537ZM264.731,25.809c2.44,1.082,4.969,2.591,4.969,6.547,0,4.206-3.571,6.182-7.093,6.182-3.553,0-7.203-2.045-7.203-6.072v-.17l4.013-.73c.036,1.983,1.609,3.175,3.481,3.175,1.349,0,2.493-.711,2.493-2.275,0-1.676-1.649-2.473-2.937-3.066-3.276-1.508-6.722-2.695-6.722-7.212,0-3.547,2.683-5.446,5.603-5.821v3.756c-.775.251-1.331.853-1.331,1.81,0,1.744,1.599,2.514,2.946,3.112.568.252,1.174.497,1.78.766v-.002ZM262.97,16.314c3.074.196,6.037,2.044,6.037,5.436v.171l-3.824.692c-.061-1.407-.974-2.307-2.213-2.556v-3.743h0ZM133.83,15.167v23.007h-4.454v-21.549l4.454-1.458Z"/>
  <path class="st2" d="M50.579,12.674V2.626s1.338-.63,2.247-.626c.894.005,2.204.626,2.204.626v11.341l-4.452-1.292h0Z"/>
  <g class="st0">
    <g class="st0">
      <path class="st1" d="M64.655,51.841l2.183-6.275h1.218l2.183,6.275h-1.355l-.382-1.191h-2.101l-.382,1.191h-1.364ZM66.737,49.576h1.418l-.709-2.21-.709,2.21Z"/>
      <path class="st1" d="M75.167,48.576v.573c0,1.918-.891,2.773-2.31,2.773-1.41,0-2.401-.855-2.401-2.773v-.801c0-2.028.991-2.864,2.401-2.864,1.319,0,2.11.745,2.301,2.027h-1.219c-.109-.572-.446-.955-1.083-.955-.736,0-1.127.501-1.127,1.701v.892c0,1.2.391,1.7,1.127,1.7.719,0,1.01-.445,1.083-1.2h-1.055v-1.073h2.283Z"/>
      <path class="st1" d="M77.577,51.841h-1.273v-6.275h1.273v6.275Z"/>
      <path class="st1" d="M80.178,50.768h2.637v1.073h-3.911v-6.275h1.273v5.202Z"/>
      <path class="st1" d="M87.398,45.566v1.083h-2.637v1.409h2.364v1.073h-2.364v1.637h2.637v1.073h-3.911v-6.275h3.911Z"/>
      <path class="st1" d="M94.737,45.566v1.083h-1.728v5.192h-1.273v-5.192h-1.728v-1.083h4.729Z"/>
      <path class="st1" d="M98.848,51.841l-1.128-2.465h-1.019v2.465h-1.273v-6.275h2.247c1.446,0,2.346.646,2.346,1.919,0,.846-.391,1.4-1.073,1.683l1.301,2.674h-1.4ZM97.557,48.303c.755,0,1.191-.163,1.191-.818s-.437-.836-1.191-.836h-.855v1.654h.855Z"/>
      <path class="st1" d="M100.448,51.841l2.183-6.275h1.219l2.183,6.275h-1.355l-.382-1.191h-2.101l-.382,1.191h-1.364ZM102.531,49.576h1.418l-.709-2.21-.709,2.21Z"/>
      <path class="st1" d="M111.343,45.566v6.275h-1.064l-2.446-3.883v3.883h-1.21v-6.275h1.055l2.456,3.938v-3.938h1.209Z"/>
      <path class="st1" d="M115.854,47.193c-.273-.427-.6-.637-1.237-.637-.573,0-.882.265-.882.691,0,.491.4.71,1.237.919,1.31.327,1.901.818,1.901,1.928,0,1.027-.691,1.828-2.165,1.828-1.101,0-1.864-.301-2.419-1.027l.973-.674c.336.419.718.628,1.364.628.728,0,.973-.318.973-.7,0-.437-.264-.683-1.282-.946-1.237-.327-1.855-.918-1.855-1.955,0-.991.655-1.764,2.146-1.764,1,0,1.755.336,2.201,1.027l-.955.682Z"/>
      <path class="st1" d="M121.728,45.566v1.083h-2.637v1.555h2.365v1.073h-2.365v2.564h-1.273v-6.275h3.91Z"/>
      <path class="st1" d="M124.765,51.923c-1.409,0-2.401-.855-2.401-2.773v-.892c0-1.938.992-2.773,2.401-2.773,1.419,0,2.41.836,2.41,2.773v.892c0,1.918-.991,2.773-2.41,2.773ZM123.638,49.15c0,1.2.391,1.7,1.127,1.7s1.137-.5,1.137-1.7v-.892c0-1.2-.4-1.701-1.137-1.701s-1.127.501-1.127,1.701v.892Z"/>
      <path class="st1" d="M131.64,51.841l-1.127-2.465h-1.019v2.465h-1.273v-6.275h2.246c1.446,0,2.346.646,2.346,1.919,0,.846-.391,1.4-1.073,1.683l1.301,2.674h-1.401ZM130.349,48.303c.755,0,1.191-.163,1.191-.818s-.437-.836-1.191-.836h-.855v1.654h.855Z"/>
      <path class="st1" d="M136.788,48.985l1.746-3.42h1.209v6.275h-1.219v-3.893l-1.364,2.765h-.772l-1.346-2.737v3.865h-1.21v-6.275h1.191l1.765,3.42Z"/>
      <path class="st1" d="M140.325,51.841l2.183-6.275h1.218l2.183,6.275h-1.354l-.382-1.191h-2.101l-.383,1.191h-1.363ZM142.407,49.576h1.419l-.71-2.21-.709,2.21Z"/>
      <path class="st1" d="M150.347,45.566v1.083h-1.728v5.192h-1.273v-5.192h-1.728v-1.083h4.729Z"/>
      <path class="st1" d="M152.401,51.841h-1.272v-6.275h1.272v6.275Z"/>
      <path class="st1" d="M155.939,51.923c-1.409,0-2.401-.855-2.401-2.773v-.892c0-1.938.992-2.773,2.401-2.773,1.419,0,2.41.836,2.41,2.773v.892c0,1.918-.991,2.773-2.41,2.773ZM154.812,49.15c0,1.2.392,1.7,1.128,1.7s1.137-.5,1.137-1.7v-.892c0-1.2-.4-1.701-1.137-1.701s-1.128.501-1.128,1.701v.892Z"/>
      <path class="st1" d="M164.115,45.566v6.275h-1.064l-2.446-3.883v3.883h-1.209v-6.275h1.055l2.455,3.938v-3.938h1.21Z"/>
      <path class="st1" d="M168.625,47.193c-.272-.427-.6-.637-1.236-.637-.573,0-.883.265-.883.691,0,.491.4.71,1.237.919,1.31.327,1.9.818,1.9,1.928,0,1.027-.691,1.828-2.164,1.828-1.101,0-1.864-.301-2.419-1.027l.973-.674c.337.419.719.628,1.364.628.728,0,.973-.318.973-.7,0-.437-.264-.683-1.282-.946-1.236-.327-1.854-.918-1.854-1.955,0-.991.654-1.764,2.146-1.764,1.001,0,1.756.336,2.201,1.027l-.955.682Z"/>
      <path class="st1" d="M173.617,48.358c-.363-.445-.6-.891-.6-1.445,0-.864.728-1.428,1.719-1.428,1.137,0,1.7.6,1.7,1.245,0,.7-.646,1.21-1.3,1.691l1.2,1.337c.082-.245.127-.536.127-.846h1.201c0,.655-.173,1.265-.491,1.773l1.046,1.155h-1.465l-.346-.373c-.445.291-1.009.455-1.682.455-1.401,0-2.165-.855-2.165-1.746,0-.828.491-1.373,1.055-1.819ZM175.664,50.641l-1.392-1.528c-.282.273-.473.555-.473.883,0,.518.391.854.981.854.346,0,.646-.073.883-.209ZM174.545,47.712c.419-.291.746-.563.746-.909,0-.228-.191-.437-.536-.437-.301,0-.528.173-.528.546,0,.264.137.545.318.8Z"/>
      <path class="st1" d="M184.458,47.193c-.273-.427-.601-.637-1.237-.637-.572,0-.882.265-.882.691,0,.491.4.71,1.236.919,1.31.327,1.901.818,1.901,1.928,0,1.027-.691,1.828-2.165,1.828-1.1,0-1.864-.301-2.419-1.027l.974-.674c.336.419.718.628,1.364.628.728,0,.973-.318.973-.7,0-.437-.264-.683-1.282-.946-1.237-.327-1.855-.918-1.855-1.955,0-.991.655-1.764,2.146-1.764,1,0,1.755.336,2.201,1.027l-.955.682Z"/>
      <path class="st1" d="M190.56,45.566v1.083h-1.728v5.192h-1.273v-5.192h-1.728v-1.083h4.729Z"/>
      <path class="st1" d="M194.671,51.841l-1.128-2.465h-1.019v2.465h-1.273v-6.275h2.246c1.446,0,2.347.646,2.347,1.919,0,.846-.392,1.4-1.073,1.683l1.301,2.674h-1.4ZM193.379,48.303c.755,0,1.191-.163,1.191-.818s-.437-.836-1.191-.836h-.854v1.654h.854Z"/>
      <path class="st1" d="M196.271,51.841l2.183-6.275h1.219l2.183,6.275h-1.355l-.382-1.191h-2.101l-.382,1.191h-1.364ZM198.354,49.576h1.418l-.709-2.21-.709,2.21Z"/>
      <path class="st1" d="M206.292,45.566v1.083h-1.728v5.192h-1.273v-5.192h-1.728v-1.083h4.729Z"/>
      <path class="st1" d="M210.894,45.566v1.083h-2.637v1.409h2.364v1.073h-2.364v1.637h2.637v1.073h-3.91v-6.275h3.91Z"/>
      <path class="st1" d="M216.296,48.576v.573c0,1.918-.892,2.773-2.311,2.773-1.409,0-2.4-.855-2.4-2.773v-.801c0-2.028.991-2.864,2.4-2.864,1.319,0,2.11.745,2.302,2.027h-1.219c-.109-.572-.446-.955-1.083-.955-.736,0-1.127.501-1.127,1.701v.892c0,1.2.391,1.7,1.127,1.7.719,0,1.01-.445,1.083-1.2h-1.056v-1.073h2.283Z"/>
      <path class="st1" d="M218.032,45.566l1.119,2.338,1.127-2.338h1.465l-1.955,3.711v2.564h-1.273v-2.564l-1.955-3.711h1.473Z"/>
      <path class="st1" d="M228.608,45.566v1.083h-2.637v1.409h2.364v1.073h-2.364v1.637h2.637v1.073h-3.91v-6.275h3.91Z"/>
      <path class="st1" d="M228.99,51.841l1.765-3.237-1.573-3.038h1.382l1.001,2.001,1.009-2.001h1.374l-1.583,3.038,1.773,3.237h-1.373l-1.2-2.137-1.191,2.137h-1.383Z"/>
      <path class="st1" d="M238.785,45.566v1.083h-2.638v1.409h2.365v1.073h-2.365v1.637h2.638v1.073h-3.91v-6.275h3.91Z"/>
      <path class="st1" d="M242.959,47.512c-.118-.591-.464-.955-1.082-.955-.736,0-1.128.501-1.128,1.701v.892c0,1.164.392,1.7,1.128,1.7.637,0,.945-.318,1.082-.955h1.21c-.209,1.41-1.001,2.028-2.292,2.028-1.409,0-2.401-.855-2.401-2.773v-.892c0-1.938.992-2.773,2.401-2.773,1.246,0,2.092.654,2.301,2.027h-1.219Z"/>
      <path class="st1" d="M249.889,45.566v3.729c0,1.855-1.019,2.629-2.41,2.629s-2.409-.773-2.409-2.619v-3.738h1.272v3.738c0,1.073.354,1.546,1.137,1.546s1.137-.473,1.137-1.546v-3.738h1.273Z"/>
      <path class="st1" d="M255.309,45.566v1.083h-1.729v5.192h-1.272v-5.192h-1.729v-1.083h4.729Z"/>
      <path class="st1" d="M257.363,51.841h-1.272v-6.275h1.272v6.275Z"/>
      <path class="st1" d="M260.901,51.923c-1.409,0-2.401-.855-2.401-2.773v-.892c0-1.938.992-2.773,2.401-2.773,1.419,0,2.41.836,2.41,2.773v.892c0,1.918-.991,2.773-2.41,2.773ZM259.773,49.15c0,1.2.392,1.7,1.128,1.7s1.137-.5,1.137-1.7v-.892c0-1.2-.4-1.701-1.137-1.701s-1.128.501-1.128,1.701v.892Z"/>
      <path class="st1" d="M269.076,45.566v6.275h-1.063l-2.446-3.883v3.883h-1.21v-6.275h1.055l2.456,3.938v-3.938h1.209Z"/>
    </g>
  </g>
  <metadata>
    <sfw xmlns="http://ns.adobe.com/SaveForWeb/1.0/">
      <slices/>
      <sliceSourceBounds x="0.4" y="2.38" width="269.3" height="49.92" bottomLeftOrigin="true"/>
    </sfw>
  </metadata>
</svg>